<svg width="154" height="40" viewBox="0 0 154 40" fill="none" xmlns="http://www.w3.org/2000/svg">
    <path d="M54.001 32.0572H62.451C65.1865 32.0572 67.5627 31.5008 69.5796 30.388C71.6196 29.2753 73.196 27.7452 74.3088 25.7979C75.4216 23.8506 75.9779 21.6135 75.9779 19.0866C75.9779 16.5365 75.4216 14.2994 74.3088 12.3753C73.196 10.428 71.6312 8.90951 69.6144 7.81994C67.5975 6.70718 65.2097 6.1508 62.451 6.1508H54.001V32.0572ZM58.7302 27.8843V10.3236H62.5553C64.3172 10.3236 65.8356 10.683 67.1106 11.4016C68.4089 12.1203 69.4173 13.1403 70.136 14.4617C70.8546 15.7599 71.2139 17.3016 71.2139 19.0866C71.2139 20.8717 70.8546 22.4249 70.136 23.7463C69.4405 25.0677 68.4436 26.0877 67.1454 26.8064C65.8472 27.525 64.3172 27.8843 62.5553 27.8843H58.7302Z" fill="#F9F9F9" />
    <path d="M87.6353 32.4745C89.5594 32.4745 91.2401 32.0456 92.6774 31.1878C94.1379 30.3069 95.158 29.1942 95.7375 27.8496L92.0515 26.0413C91.6342 26.76 91.0547 27.3511 90.3128 27.8148C89.5942 28.2553 88.7132 28.4755 87.67 28.4755C86.3023 28.4755 85.1547 28.0582 84.2274 27.2236C83.3001 26.3891 82.7669 25.2763 82.6279 23.8854H96.2591C96.3519 23.6304 96.4098 23.3406 96.433 23.016C96.4794 22.6683 96.5025 22.3206 96.5025 21.9728C96.5025 20.2805 96.1432 18.7389 95.4246 17.3479C94.7059 15.957 93.6627 14.8442 92.2949 14.0097C90.9272 13.1519 89.258 12.723 87.2875 12.723C85.5257 12.723 83.9261 13.1519 82.4888 14.0097C81.0746 14.8674 79.9503 16.0381 79.1157 17.5218C78.3043 18.9823 77.8986 20.663 77.8986 22.564C77.8986 24.3954 78.3043 26.0645 79.1157 27.5714C79.9271 29.0782 81.063 30.2721 82.5235 31.1531C83.984 32.034 85.6879 32.4745 87.6353 32.4745ZM87.2875 16.4786C88.493 16.4786 89.4899 16.8495 90.2781 17.5913C91.0894 18.31 91.5415 19.2489 91.6342 20.408H82.7322C82.9872 19.1562 83.5204 18.1941 84.3318 17.5218C85.1663 16.8263 86.1516 16.4786 87.2875 16.4786Z" fill="#F9F9F9" />
    <path d="M101.451 32.0572H106.006V17.2088H110.214V13.1403H106.006V12.5144C106.006 11.5639 106.285 10.8684 106.841 10.428C107.42 9.96432 108.209 9.73249 109.206 9.73249C109.576 9.73249 109.971 9.76726 110.388 9.83681V5.90739C109.855 5.79148 109.263 5.73352 108.614 5.73352C106.435 5.73352 104.697 6.32467 103.398 7.50698C102.1 8.68928 101.451 10.3584 101.451 12.5144V13.1403H98.1127V17.2088H101.451V32.0572Z" fill="#F9F9F9" />
    <path d="M122.198 32.2658C122.963 32.2658 123.717 32.2079 124.459 32.092V28.1625C124.018 28.2321 123.612 28.2669 123.242 28.2669C122.129 28.2669 121.317 28.0118 120.807 27.5018C120.297 26.9918 120.042 26.2616 120.042 25.3111V17.2088H124.389V13.1403H120.042V8.82838H115.487V10.2889C115.487 11.2162 115.232 11.9232 114.722 12.4101C114.212 12.8969 113.493 13.1403 112.566 13.1403H112.218V17.2088H115.487V25.5545C115.487 27.6641 116.067 29.3101 117.226 30.4924C118.408 31.6747 120.066 32.2658 122.198 32.2658Z" fill="#F9F9F9" />
    <path d="M127.244 32.0572H131.799V5.73352H127.244V32.0572Z" fill="#F9F9F9" />
    <path d="M137.604 39.7422C139.39 39.7422 140.873 39.2321 142.055 38.2121C143.261 37.2153 144.223 35.8011 144.942 33.9697L153.183 13.1403H148.245L143.377 26.1804L138.474 13.1403H133.571L141.047 32.0572L140.63 33.0656C140.259 33.8538 139.83 34.4913 139.343 34.9782C138.879 35.465 138.126 35.7084 137.083 35.7084C136.712 35.7084 136.318 35.6736 135.901 35.6041C135.483 35.5577 135.112 35.4882 134.788 35.3955V39.2206C135.182 39.406 135.622 39.5335 136.109 39.6031C136.596 39.6958 137.094 39.7422 137.604 39.7422Z" fill="#F9F9F9" />
    <path fill-rule="evenodd" clip-rule="evenodd" d="M1.12922 1.12908C1.75279 0.505508 2.76381 0.505508 3.38738 1.12908L8.32795 6.06965C8.95153 6.69322 8.95153 7.70424 8.32795 8.32782C7.70437 8.95139 6.69336 8.95139 6.06978 8.32782L1.12922 3.38725C0.505642 2.76367 0.505642 1.75266 1.12922 1.12908Z" fill="#5BCBEE" />
    <path fill-rule="evenodd" clip-rule="evenodd" d="M11.3099 1.12908C11.9335 0.505508 12.9445 0.505508 13.568 1.12908L18.5086 6.06965C19.1322 6.69322 19.1322 7.70424 18.5086 8.32782C17.885 8.95139 16.874 8.95139 16.2504 8.32782L11.3099 3.38725C10.6863 2.76367 10.6863 1.75266 11.3099 1.12908Z" fill="#5BCBEE" />
    <path fill-rule="evenodd" clip-rule="evenodd" d="M21.491 8.32783C22.1146 8.9514 23.1256 8.9514 23.7492 8.32783L28.6898 3.38726C29.3133 2.76368 29.3133 1.75267 28.6898 1.12909C28.0662 0.505517 27.0552 0.505518 26.4316 1.12909L21.491 6.06966C20.8675 6.69323 20.8675 7.70425 21.491 8.32783Z" fill="#53C7AB" />
    <path fill-rule="evenodd" clip-rule="evenodd" d="M1.12922 11.3099C1.75279 10.6864 2.76381 10.6864 3.38738 11.3099L8.32795 16.2505C8.95153 16.8741 8.95153 17.8851 8.32795 18.5087C7.70437 19.1322 6.69336 19.1322 6.06978 18.5087L1.12922 13.5681C0.505642 12.9445 0.505642 11.9335 1.12922 11.3099Z" fill="#5BCBEE" />
    <path fill-rule="evenodd" clip-rule="evenodd" d="M11.3099 11.3099C11.9335 10.6864 12.9445 10.6864 13.568 11.3099L18.5086 16.2505C19.1322 16.8741 19.1322 17.8851 18.5086 18.5087C17.885 19.1322 16.874 19.1322 16.2504 18.5087L11.3099 13.5681C10.6863 12.9445 10.6863 11.9335 11.3099 11.3099Z" fill="#5BCBEE" />
    <path fill-rule="evenodd" clip-rule="evenodd" d="M21.491 18.5086C22.1146 19.1322 23.1256 19.1322 23.7492 18.5086L28.6898 13.568C29.3133 12.9445 29.3133 11.9335 28.6898 11.3099C28.0662 10.6863 27.0552 10.6863 26.4316 11.3099L21.491 16.2504C20.8675 16.874 20.8675 17.885 21.491 18.5086Z" fill="#53C7AB" />
    <path fill-rule="evenodd" clip-rule="evenodd" d="M31.6722 18.5086C32.2958 19.1322 33.3068 19.1322 33.9304 18.5086L38.8709 13.568C39.4945 12.9445 39.4945 11.9335 38.8709 11.3099C38.2473 10.6863 37.2363 10.6863 36.6128 11.3099L31.6722 16.2504C31.0486 16.874 31.0486 17.885 31.6722 18.5086Z" fill="#53C7AB" />
    <path fill-rule="evenodd" clip-rule="evenodd" d="M28.6901 38.8702C28.0665 39.4938 27.0555 39.4938 26.432 38.8702L21.4914 33.9297C20.8678 33.3061 20.8678 32.2951 21.4914 31.6715C22.115 31.0479 23.126 31.0479 23.7496 31.6715L28.6901 36.6121C29.3137 37.2357 29.3137 38.2467 28.6901 38.8702Z" fill="#816BDA" />
    <path fill-rule="evenodd" clip-rule="evenodd" d="M18.509 31.6715C17.8854 31.0479 16.8744 31.0479 16.2508 31.6715L11.3102 36.6121C10.6867 37.2356 10.6867 38.2467 11.3102 38.8702C11.9338 39.4938 12.9448 39.4938 13.5684 38.8702L18.509 33.9297C19.1325 33.3061 19.1325 32.2951 18.509 31.6715Z" fill="#5378D7" />
    <path fill-rule="evenodd" clip-rule="evenodd" d="M8.32781 31.6715C7.70424 31.0479 6.69322 31.0479 6.06965 31.6715L1.12908 36.6121C0.505506 37.2356 0.505505 38.2467 1.12908 38.8702C1.75266 39.4938 2.76367 39.4938 3.38725 38.8702L8.32781 33.9297C8.95139 33.3061 8.95139 32.2951 8.32781 31.6715Z" fill="#5378D7" />
    <path fill-rule="evenodd" clip-rule="evenodd" d="M38.8708 28.6895C38.2472 29.313 37.2362 29.313 36.6126 28.6895L31.672 23.7489C31.0485 23.1253 31.0485 22.1143 31.672 21.4907C32.2956 20.8672 33.3066 20.8672 33.9302 21.4907L38.8708 26.4313C39.4944 27.0549 39.4944 28.0659 38.8708 28.6895Z" fill="#816BDA" />
    <path fill-rule="evenodd" clip-rule="evenodd" d="M28.6901 28.6895C28.0665 29.313 27.0555 29.313 26.432 28.6895L21.4914 23.7489C20.8678 23.1253 20.8678 22.1143 21.4914 21.4907C22.115 20.8672 23.126 20.8672 23.7496 21.4907L28.6901 26.4313C29.3137 27.0549 29.3137 28.0659 28.6901 28.6895Z" fill="#816BDA" />
    <path fill-rule="evenodd" clip-rule="evenodd" d="M18.509 21.4907C17.8854 20.8671 16.8744 20.8671 16.2508 21.4907L11.3102 26.4313C10.6867 27.0549 10.6867 28.0659 11.3102 28.6894C11.9338 29.313 12.9448 29.313 13.5684 28.6894L18.509 23.7489C19.1325 23.1253 19.1325 22.1143 18.509 21.4907Z" fill="#5378D7" />
    <path fill-rule="evenodd" clip-rule="evenodd" d="M8.32781 21.4907C7.70424 20.8671 6.69322 20.8671 6.06965 21.4907L1.12908 26.4313C0.505506 27.0549 0.505505 28.0659 1.12908 28.6894C1.75266 29.313 2.76367 29.313 3.38725 28.6894L8.32781 23.7489C8.95139 23.1253 8.95139 22.1143 8.32781 21.4907Z" fill="#5378D7" />
</svg>