<svg width="1512" height="279" viewBox="0 0 1512 279" fill="none" xmlns="http://www.w3.org/2000/svg">
    <rect width="1512" height="279" fill="white" />
    <path d="M385 139L799 139" stroke="#9CA8BF" stroke-dasharray="8 8" />
    <g filter="url(#filter0_d_216_20458)">
        <circle cx="504" cy="139" r="6" transform="rotate(-90 504 139)" fill="#A9BBEB" />
        <circle cx="504" cy="139" r="5.5" transform="rotate(-90 504 139)" stroke="#5378D7" />
    </g>
    <g filter="url(#filter1_d_216_20458)">
        <circle cx="456" cy="139" r="6" transform="rotate(-90 456 139)" fill="#A9BBEB" />
        <circle cx="456" cy="139" r="5.5" transform="rotate(-90 456 139)" stroke="#5378D7" />
    </g>
    <g filter="url(#filter2_d_216_20458)">
        <circle cx="552" cy="139" r="6" transform="rotate(-90 552 139)" fill="#A9BBEB" />
        <circle cx="552" cy="139" r="5.5" transform="rotate(-90 552 139)" stroke="#5378D7" />
    </g>
    <g filter="url(#filter3_d_216_20458)">
        <circle cx="600" cy="139" r="6" transform="rotate(-90 600 139)" fill="#A9BBEB" />
        <circle cx="600" cy="139" r="5.5" transform="rotate(-90 600 139)" stroke="#5378D7" />
    </g>
    <g filter="url(#filter4_d_216_20458)">
        <circle cx="648" cy="139" r="6" transform="rotate(-90 648 139)" fill="#A9BBEB" />
        <circle cx="648" cy="139" r="5.5" transform="rotate(-90 648 139)" stroke="#5378D7" />
    </g>
    <g filter="url(#filter5_d_216_20458)">
        <circle cx="696" cy="139" r="6" transform="rotate(-90 696 139)" fill="#A9BBEB" />
        <circle cx="696" cy="139" r="5.5" transform="rotate(-90 696 139)" stroke="#5378D7" />
    </g>
    <g filter="url(#filter6_d_216_20458)">
        <circle cx="744" cy="139" r="6" transform="rotate(-90 744 139)" fill="#A9BBEB" />
        <circle cx="744" cy="139" r="5.5" transform="rotate(-90 744 139)" stroke="#5378D7" />
    </g>
    <path d="M758 139L1148 139" stroke="#9CA8BF" stroke-dasharray="8 8" />
    <path d="M860.724 136.872H857.745H860.724ZM864.27 136.872H861.292H864.27ZM867.745 136.872L864.767 136.872L867.745 136.872ZM871.221 136.872H868.313H871.221ZM874.767 136.872H871.788H874.767ZM871.221 133.61H868.313H871.221ZM867.745 133.61L864.767 133.61L867.745 133.61ZM864.27 133.61H861.292H864.27ZM864.27 130.348H861.292H864.27Z" fill="#5378D7" />
    <path fill-rule="evenodd" clip-rule="evenodd" d="M861.292 131.695H864.27V129H861.292V131.695ZM871.221 132.262H868.313V134.957H871.221V132.262ZM867.745 132.262L864.767 132.262V134.957L867.745 134.957V132.262ZM864.27 132.262H861.292V134.957H864.27V132.262ZM874.767 135.525H871.788V138.22H874.767V135.525ZM871.221 135.525H868.313V138.22H871.221V135.525ZM867.745 135.525L864.767 135.525V138.22L867.745 138.22V135.525ZM864.27 135.525H861.292V138.22H864.27V135.525ZM860.724 135.525H857.745V138.22H860.724V135.525Z" fill="#A9BBEB" />
    <path d="M848.241 137.014C848.241 137.014 849.518 135.809 852.142 136.234C852.426 134.177 854.624 132.972 854.624 132.972C854.624 132.972 856.681 135.454 855.192 138.22C855.617 138.433 856.327 138.716 857.39 138.716L876.894 138.716C877.248 140.064 877.248 149 867.461 149C860.44 149 855.192 145.738 852.71 139.78C849.022 140.064 848.241 137.014 848.241 137.014Z" fill="#5378D7" />
    <path d="M791.967 136.872H788.989H791.967ZM795.513 136.872H792.535H795.513ZM798.989 136.872L796.01 136.872L798.989 136.872ZM802.464 136.872H799.556H802.464ZM806.01 136.872H803.031H806.01ZM802.464 133.61H799.556H802.464ZM798.989 133.61L796.01 133.61L798.989 133.61ZM795.513 133.61H792.535H795.513ZM795.513 130.348H792.535H795.513Z" fill="#5378D7" />
    <path fill-rule="evenodd" clip-rule="evenodd" d="M792.535 131.695H795.513V129H792.535V131.695ZM802.464 132.262H799.556V134.957H802.464V132.262ZM798.989 132.262L796.01 132.262V134.957L798.989 134.957V132.262ZM795.513 132.262H792.535V134.957H795.513V132.262ZM806.01 135.525H803.031V138.22H806.01V135.525ZM802.464 135.525H799.556V138.22H802.464V135.525ZM798.989 135.525L796.01 135.525V138.22L798.989 138.22V135.525ZM795.513 135.525H792.535V138.22H795.513V135.525ZM791.967 135.525H788.989V138.22H791.967V135.525Z" fill="#A9BBEB" />
    <path d="M779.485 137.014C779.485 137.014 780.761 135.809 783.385 136.234C783.669 134.177 785.868 132.972 785.868 132.972C785.868 132.972 787.924 135.454 786.435 138.22C786.86 138.433 787.57 138.716 788.633 138.716L808.137 138.716C808.491 140.064 808.491 149 798.704 149C791.683 149 786.435 145.738 783.953 139.78C780.265 140.064 779.485 137.014 779.485 137.014Z" fill="#5378D7" />
    <path d="M929.481 136.872H926.502H929.481ZM933.027 136.872H930.048H933.027ZM936.502 136.872L933.524 136.872L936.502 136.872ZM939.977 136.872H937.07H939.977ZM943.523 136.872H940.545H943.523ZM939.977 133.61H937.07H939.977ZM936.502 133.61L933.524 133.61L936.502 133.61ZM933.027 133.61H930.048H933.027ZM933.027 130.348H930.048H933.027Z" fill="#5378D7" />
    <path fill-rule="evenodd" clip-rule="evenodd" d="M930.048 131.695H933.027V129H930.048V131.695ZM939.977 132.262H937.07V134.957H939.977V132.262ZM936.502 132.262L933.524 132.262V134.957L936.502 134.957V132.262ZM933.027 132.262H930.048V134.957H933.027V132.262ZM943.523 135.525H940.545V138.22H943.523V135.525ZM939.977 135.525H937.07V138.22H939.977V135.525ZM936.502 135.525L933.524 135.525V138.22L936.502 138.22V135.525ZM933.027 135.525H930.048V138.22H933.027V135.525ZM929.481 135.525H926.502V138.22H929.481V135.525Z" fill="#A9BBEB" />
    <path d="M916.998 137.014C916.998 137.014 918.275 135.809 920.899 136.234C921.183 134.177 923.381 132.972 923.381 132.972C923.381 132.972 925.438 135.454 923.949 138.22C924.374 138.433 925.083 138.716 926.147 138.716L945.651 138.716C946.005 140.064 946.005 149 936.218 149C929.197 149 923.949 145.738 921.466 139.78C917.778 140.064 916.998 137.014 916.998 137.014Z" fill="#5378D7" />
    <path d="M998.238 136.872H995.259H998.238ZM1001.78 136.872H998.805H1001.78ZM1005.26 136.872L1002.28 136.872L1005.26 136.872ZM1008.73 136.872H1005.83H1008.73ZM1012.28 136.872H1009.3H1012.28ZM1008.73 133.61H1005.83H1008.73ZM1005.26 133.61L1002.28 133.61L1005.26 133.61ZM1001.78 133.61H998.805H1001.78ZM1001.78 130.348H998.805H1001.78Z" fill="#5378D7" />
    <path fill-rule="evenodd" clip-rule="evenodd" d="M998.805 131.695H1001.78V129H998.805V131.695ZM1008.73 132.262H1005.83V134.957H1008.73V132.262ZM1005.26 132.262L1002.28 132.262V134.957L1005.26 134.957V132.262ZM1001.78 132.262H998.805V134.957H1001.78V132.262ZM1012.28 135.525H1009.3V138.22H1012.28V135.525ZM1008.73 135.525H1005.83V138.22H1008.73V135.525ZM1005.26 135.525L1002.28 135.525V138.22L1005.26 138.22V135.525ZM1001.78 135.525H998.805V138.22H1001.78V135.525ZM998.238 135.525H995.259V138.22H998.238V135.525Z" fill="#A9BBEB" />
    <path d="M985.755 137.014C985.755 137.014 987.032 135.809 989.656 136.234C989.94 134.177 992.138 132.972 992.138 132.972C992.138 132.972 994.195 135.454 992.705 138.22C993.131 138.433 993.84 138.716 994.904 138.716L1014.41 138.716C1014.76 140.064 1014.76 149 1004.97 149C997.954 149 992.705 145.738 990.223 139.78C986.535 140.064 985.755 137.014 985.755 137.014Z" fill="#5378D7" />
    <path d="M1066.99 136.872H1064.02H1066.99ZM1070.54 136.872H1067.56H1070.54ZM1074.02 136.872L1071.04 136.872L1074.02 136.872ZM1077.49 136.872H1074.58H1077.49ZM1081.04 136.872H1078.06H1081.04ZM1077.49 133.61H1074.58H1077.49ZM1074.02 133.61L1071.04 133.61L1074.02 133.61ZM1070.54 133.61H1067.56H1070.54ZM1070.54 130.348H1067.56H1070.54Z" fill="#5378D7" />
    <path fill-rule="evenodd" clip-rule="evenodd" d="M1067.56 131.695H1070.54V129H1067.56V131.695ZM1077.49 132.262H1074.58V134.957H1077.49V132.262ZM1074.02 132.262L1071.04 132.262V134.957L1074.02 134.957V132.262ZM1070.54 132.262H1067.56V134.957H1070.54V132.262ZM1081.04 135.525H1078.06V138.22H1081.04V135.525ZM1077.49 135.525H1074.58V138.22H1077.49V135.525ZM1074.02 135.525L1071.04 135.525V138.22L1074.02 138.22V135.525ZM1070.54 135.525H1067.56V138.22H1070.54V135.525ZM1066.99 135.525H1064.02V138.22H1066.99V135.525Z" fill="#A9BBEB" />
    <path d="M1054.51 137.014C1054.51 137.014 1055.79 135.809 1058.41 136.234C1058.7 134.177 1060.89 132.972 1060.89 132.972C1060.89 132.972 1062.95 135.454 1061.46 138.22C1061.89 138.433 1062.6 138.716 1063.66 138.716L1083.16 138.716C1083.52 140.064 1083.52 149 1073.73 149C1066.71 149 1061.46 145.738 1058.98 139.78C1055.29 140.064 1054.51 137.014 1054.51 137.014Z" fill="#5378D7" />
    <rect x="695" y="67" width="121.905" height="144" rx="4" fill="url(#paint0_linear_216_20458)" />
    <path fill-rule="evenodd" clip-rule="evenodd" d="M755.952 91C744.376 91 735 100.176 735 111.506C735 120.58 740.998 128.244 749.326 130.961C750.374 131.14 750.767 130.525 750.767 129.987C750.767 129.5 750.74 127.885 750.74 126.168C745.476 127.116 744.114 124.912 743.695 123.758C743.46 123.169 742.438 121.349 741.548 120.862C740.814 120.477 739.767 119.529 741.521 119.503C743.171 119.478 744.35 120.99 744.743 121.605C746.629 124.707 749.64 123.835 750.845 123.297C751.029 121.964 751.579 121.067 752.181 120.554C747.519 120.041 742.648 118.273 742.648 110.429C742.648 108.199 743.46 106.354 744.795 104.918C744.586 104.406 743.852 102.304 745.005 99.4843C745.005 99.4843 746.76 98.946 750.767 101.586C752.443 101.125 754.224 100.894 756.005 100.894C757.786 100.894 759.567 101.125 761.243 101.586C765.25 98.9204 767.005 99.4843 767.005 99.4843C768.157 102.304 767.424 104.406 767.214 104.918C768.55 106.354 769.362 108.174 769.362 110.429C769.362 118.298 764.464 120.041 759.802 120.554C760.562 121.195 761.217 122.425 761.217 124.348C761.217 127.09 761.19 129.295 761.19 129.987C761.19 130.525 761.583 131.166 762.631 130.961C770.907 128.244 776.905 120.554 776.905 111.506C776.905 100.176 767.529 91 755.952 91Z" fill="#0F1829" />
    <path d="M756.559 147.008C755.613 147.086 754.91 147.219 754.246 147.43C753.84 147.563 752.957 147.899 752.629 148.039C752.371 148.157 751.23 148.774 750.511 149.196C749.254 149.93 748.605 150.626 748.308 151.579C748.246 151.766 748.222 151.805 748.16 151.844C747.863 152.009 747.582 152.259 747.386 152.532C747.089 152.962 746.886 153.626 746.816 154.337C746.8 154.501 746.785 154.696 746.777 154.767L746.761 154.899L746.464 155.157C745.659 155.868 744.792 156.837 744.159 157.751C742.839 159.65 741.948 161.916 741.636 164.181C741.526 165.002 741.495 165.385 741.495 166.322C741.495 167.26 741.518 167.643 741.636 168.463C741.839 169.948 742.315 171.495 742.987 172.885C743.769 174.51 744.925 176.073 746.214 177.261L746.581 177.597L746.613 178.065C746.628 178.323 746.652 178.847 746.667 179.222C746.691 180.097 746.73 180.245 746.949 180.433C747.074 180.542 747.277 180.636 747.683 180.792C747.847 180.855 748.371 181.097 748.847 181.324C750.05 181.91 750.441 182.066 751.043 182.214C751.465 182.316 751.558 182.331 752.105 182.347L752.629 182.363L752.801 182.949C753.105 183.996 753.363 184.855 753.512 185.293C753.691 185.832 753.926 186.465 753.957 186.496C753.996 186.535 754.363 186.644 754.754 186.73C756.153 187.043 758.332 187.09 760.419 186.84C761.122 186.754 761.606 186.488 761.786 186.097C761.833 185.996 761.833 185.965 761.809 185.808C761.794 185.715 761.778 185.496 761.77 185.324L761.755 185.011L761.973 184.972C762.7 184.832 763.067 184.644 763.224 184.316C763.278 184.207 763.294 184.136 763.302 183.925C763.317 183.605 763.286 183.394 763.13 182.691C762.919 181.769 762.872 181.417 762.927 181.081L762.958 180.902L763.114 180.847C763.45 180.738 763.606 180.566 763.606 180.3V180.167L763.763 180.097C764.138 179.925 764.552 179.847 765.153 179.831L765.591 179.816L765.661 179.941L765.825 180.167C765.919 180.277 765.927 180.277 766.177 180.323C766.966 180.456 767.771 180.464 768.388 180.331C768.865 180.23 769.029 180.152 769.271 179.894C769.724 179.402 770.037 178.464 770.037 177.581C770.037 177.19 770.013 177.05 769.857 176.503C769.638 175.737 769.349 174.964 769.138 174.55C769.005 174.292 768.802 174.065 768.576 173.932L768.427 173.831L768.552 173.589C768.755 173.237 769.154 172.393 769.326 171.971C769.912 170.51 770.248 169.065 770.38 167.408C770.419 166.947 770.419 165.697 770.38 165.228C770.248 163.588 769.912 162.134 769.326 160.666C769.13 160.181 768.646 159.189 768.38 158.736C767.771 157.704 767.036 156.735 766.2 155.884L765.81 155.485L765.763 154.993C765.614 153.259 765.2 151.837 764.591 150.899C764.145 150.211 763.216 149.219 762.388 148.539C761.403 147.727 760.2 147.266 758.52 147.055C758.247 147.016 756.84 146.985 756.559 147.008ZM758.45 147.953C759.411 148.11 760.356 148.407 761.208 148.821C761.809 149.118 762.114 149.336 762.598 149.844C762.942 150.196 763.817 151.29 763.872 151.43L763.77 151.462C763.309 151.399 763.091 151.423 762.825 151.548C762.505 151.696 762.317 151.954 762.309 152.274L762.317 152.391L762.427 152.344C762.622 152.212 762.778 152.165 763.099 152.165C763.372 152.165 763.419 152.173 763.638 152.251C763.981 152.368 764.239 152.524 764.497 152.79C764.981 153.266 765.146 153.845 765.239 155.353C765.286 156.087 765.302 157.548 765.263 158.009C765.122 160.025 764.583 161.9 763.747 163.322C763.559 163.635 762.919 164.603 762.763 164.799C762.552 165.057 762.286 165.299 761.981 165.494C761.075 166.08 760.129 166.463 759.239 166.604C758.879 166.658 758.2 166.658 757.879 166.604C757.536 166.541 757.028 166.361 756.567 166.143C755.363 165.557 754.551 164.775 753.254 162.955L753.098 162.728L753.113 162.853C753.191 163.416 753.52 163.986 754.176 164.744C754.942 165.611 755.496 166.119 755.981 166.393L756.184 166.518L756.098 166.533C756.028 166.525 755.832 166.51 755.66 166.502C755.153 166.479 754.817 166.58 754.645 166.814L754.567 166.916L754.301 166.9C752.84 166.814 751.957 166.549 751.433 166.018C750.863 165.447 750.043 163.541 749.855 162.369C749.793 161.986 749.808 161.955 750.097 161.642C750.41 161.298 750.465 161.181 750.394 160.962L750.254 160.9C750.105 160.916 750.027 160.962 749.761 161.166L749.457 161.361C749.222 161.455 748.839 161.439 748.574 161.33C747.902 161.056 747.292 160.173 747.113 159.212C747.058 158.939 747.058 158.454 747.113 158.236C747.23 157.743 747.55 157.306 747.964 157.064C748.261 156.884 748.675 156.806 749.027 156.853C749.59 156.923 749.902 157.306 750.136 158.197L750.222 158.517L750.496 158.509C750.941 158.501 751.308 158.384 751.441 158.197C751.488 158.134 751.488 158.126 751.449 157.845C751.426 157.689 751.355 157.368 751.301 157.134C751.012 156.001 751.019 155.829 751.347 154.243C751.504 153.509 751.543 153.212 751.543 152.829C751.543 152.469 751.504 152.188 751.402 151.891L751.34 151.641C751.34 151.555 751.504 151.251 751.715 150.962C751.926 150.665 752.582 150.001 752.965 149.704C753.332 149.422 754.004 148.977 754.442 148.727C755.746 147.985 756.207 147.852 757.434 147.875C757.942 147.891 758.122 147.899 758.45 147.953ZM753.449 148.649C753.582 148.75 753.48 148.938 753.246 149.016L752.98 149.188C752.902 149.258 752.723 149.407 752.582 149.516C752.191 149.813 752.058 149.961 751.762 150.446C751.441 150.977 751.285 151.18 751.144 151.274C750.996 151.368 750.863 151.383 750.574 151.352C750.277 151.313 750.121 151.337 749.582 151.516C749.113 151.665 748.933 151.704 748.933 151.649L749.058 151.407C749.543 150.594 750.449 149.829 751.644 149.227C752.074 149.008 752.34 148.899 752.816 148.735C753.238 148.579 753.34 148.571 753.449 148.649ZM750.887 151.938C750.988 152.196 751.019 152.399 751.027 152.805C751.043 153.282 751.019 153.548 750.894 154.337C750.761 155.22 750.746 155.337 750.746 155.79C750.746 156.267 750.761 156.384 750.91 156.876C751.019 157.259 751.058 157.556 751.012 157.681C750.98 157.767 750.894 157.822 750.761 157.845L750.668 157.861L750.652 157.689C750.605 157.243 750.379 156.837 750.019 156.548C749.66 156.259 749.261 156.126 748.8 156.126C748.48 156.126 748.253 156.173 747.941 156.321L747.722 156.4C747.691 156.368 747.652 155.689 747.652 155.126C747.652 154.61 747.66 154.438 747.699 154.243C747.824 153.571 748.035 153.188 748.519 152.782C749.027 152.352 749.59 152.087 750.23 151.954C750.551 151.891 750.574 151.884 750.73 151.876L750.887 151.938ZM746.871 156.04L746.91 156.212L746.933 156.345L746.949 156.47L746.925 156.595L746.917 156.65L746.894 156.751L746.855 156.814L746.831 156.837L746.808 156.868L746.769 156.915L746.73 156.962L746.699 157.017L746.48 157.642L746.464 157.681L746.441 157.759C746.441 157.806 746.425 157.978 746.41 158.142C746.331 158.876 746.535 159.884 746.91 160.642C747.339 161.509 748.089 162.119 748.918 162.291L749.066 162.322L749.074 162.423C749.113 162.955 749.339 163.619 749.644 164.096C749.957 164.588 750.058 164.877 749.98 165.096C749.925 165.26 749.785 165.361 749.089 165.76C747.621 166.596 746.597 167.213 746.113 167.557C745.98 167.658 745.659 167.838 745.417 167.963C744.777 168.291 744.581 168.494 744.534 168.862C744.503 169.119 744.636 169.635 744.917 170.401C745.011 170.651 745.144 171.041 745.23 171.268C745.308 171.495 745.48 171.956 745.613 172.292C745.956 173.167 746.042 173.464 746.206 174.245C746.316 174.768 746.511 176.05 746.511 176.245C746.511 176.386 745.8 175.62 745.206 174.823C743.925 173.128 743.05 171.166 742.636 169.088C742.526 168.557 742.448 168.01 742.464 167.94L742.448 167.877L742.433 167.752L742.417 167.627L742.409 167.463L742.394 167.299C742.378 167.299 742.37 167.236 742.386 167.065C742.401 166.9 742.394 166.83 742.378 166.83C742.355 166.83 742.355 166.666 742.355 166.291C742.355 165.916 742.362 165.752 742.378 165.752C742.394 165.752 742.401 165.682 742.386 165.518C742.37 165.346 742.378 165.283 742.394 165.283L742.409 165.119L742.417 164.955L742.433 164.83L742.44 164.705L742.456 164.596L742.472 164.486L742.487 164.4L742.503 164.314L742.519 164.228L742.534 164.142L742.55 164.064L742.558 163.986L742.581 163.845L742.605 163.697L742.612 163.627L742.62 163.564L742.644 163.447L742.675 163.322L742.69 163.283L743.183 161.548L743.206 161.486L743.331 161.142L743.355 161.08L743.378 161.017L743.401 160.955L743.425 160.892L743.448 160.83L743.487 160.728L743.526 160.658L743.605 160.462L743.628 160.423L743.792 160.08L743.878 159.931C744.027 159.587 744.066 159.509 744.097 159.501L744.128 159.439L744.175 159.345L744.222 159.259L744.269 159.173L744.331 159.056L744.37 158.986L744.394 158.947L744.417 158.908L744.456 158.845L744.495 158.783L744.519 158.743L744.542 158.704L744.581 158.642L744.62 158.579L744.644 158.54L744.667 158.501L744.691 158.462L744.714 158.423L744.738 158.384L744.761 158.345L744.784 158.306L744.823 158.251L744.863 158.204L744.886 158.173L744.909 158.142L744.948 158.095L744.988 158.04L745.011 158.001L745.034 157.97L745.073 157.923L745.113 157.876L745.152 157.829L745.191 157.782L745.23 157.736L745.269 157.689L745.316 157.626L745.363 157.571L745.409 157.509L745.456 157.446L745.503 157.384L745.55 157.321L745.628 157.236L745.706 157.15L745.792 157.048L745.878 156.946L746.027 156.782L746.175 156.618L746.691 156.095L746.73 156.048L746.839 156.04H746.871ZM766.208 157.118C768.068 159.29 769.185 161.892 769.513 164.838C769.568 165.33 769.591 166.768 769.552 167.33C769.427 169.135 768.974 170.846 768.208 172.471C768.06 172.776 767.724 173.409 767.591 173.612L767.529 173.714L767.286 173.745C766.661 173.823 765.755 174.128 764.95 174.534C764.708 174.659 764.677 174.667 764.677 174.612C764.677 174.589 764.763 174.346 764.864 174.065C765.247 173.018 765.622 171.885 766.036 170.541C766.161 170.135 766.364 169.479 766.489 169.088C766.763 168.221 766.818 167.963 766.81 167.635C766.794 167.15 766.646 166.979 764.942 165.518C764.466 165.111 764.091 164.736 764.028 164.603C763.927 164.416 764.02 164.135 764.372 163.549C764.638 163.103 764.778 162.799 764.942 162.291C765.317 161.166 765.591 159.931 765.732 158.689C765.786 158.228 765.849 157.423 765.849 157.173C765.849 156.907 765.872 156.775 765.911 156.775C765.896 156.782 766.044 156.931 766.208 157.118ZM763.559 165.463C763.645 165.533 763.997 165.869 764.349 166.213C764.7 166.557 765.114 166.932 765.263 167.049C765.669 167.361 765.864 167.565 765.95 167.752C766.028 167.908 766.028 167.916 766.013 168.197C765.997 168.487 765.911 168.932 765.708 169.76C765.45 170.815 765.036 172.057 764.411 173.604C764.005 174.612 763.919 174.745 763.606 174.839C763.349 174.909 763.294 174.917 762.622 174.94C762.005 174.964 761.794 174.995 761.606 175.089L761.458 175.096C761.458 175.042 761.637 174.745 762.583 173.182C763.325 171.971 763.864 171.057 763.966 170.862L763.958 170.713L763.747 170.455C763.583 170.276 763.505 170.143 763.505 170.065C763.505 170.041 763.544 169.909 763.591 169.768C763.942 168.729 763.763 167.033 763.239 166.447L762.833 166.197L762.575 166.018C762.575 165.994 762.684 165.893 762.833 165.775C762.973 165.666 763.138 165.518 763.2 165.447L763.349 165.322L763.559 165.463ZM750.527 166.221C750.59 166.283 750.793 166.494 750.965 166.705C751.144 166.908 751.355 167.15 751.426 167.244C751.683 167.541 752.254 167.885 753.535 168.51L754.324 168.901L754.356 169.104C754.434 169.604 754.895 171.198 755.074 171.573C755.309 172.081 755.598 172.229 756.035 172.065L756.239 172.002C756.324 172.002 756.223 172.245 756.004 172.526C755.723 172.901 755.66 173.143 755.793 173.346C755.864 173.456 756.09 173.612 756.403 173.776C757.16 174.167 758.082 174.604 758.536 174.792C758.825 174.909 759.067 175.026 759.067 175.042C759.067 175.065 758.958 175.073 758.676 175.089C756.575 175.175 755.34 175.276 753.379 175.503C752.824 175.565 752.488 175.597 752.465 175.581C752.41 175.55 752.34 175.339 752.309 175.12C752.269 174.776 752.277 173.682 752.332 172.971C752.355 172.62 752.379 172.237 752.379 172.12C752.379 171.487 752.074 171.495 751.965 172.127C751.926 172.362 751.933 172.542 752.004 173.385C752.058 173.956 752.066 174.643 752.027 174.901L751.949 175.229C751.902 175.386 751.894 175.401 751.832 175.401C751.73 175.401 751.574 175.315 751.301 175.128C750.98 174.901 750.855 174.839 750.824 174.886C750.761 174.979 750.824 175.136 750.988 175.323C751.144 175.503 751.168 175.659 751.058 175.784C751.004 175.854 750.957 175.87 750.754 175.917C750.426 175.987 750.285 176.089 750.285 176.268C750.285 176.331 750.293 176.331 750.441 176.331C750.527 176.331 750.808 176.315 751.074 176.3C751.551 176.276 751.793 176.284 752.035 176.354L752.129 176.378L752.144 176.589C752.199 177.237 752.402 178.941 752.613 180.417C752.691 181.003 752.762 181.495 752.762 181.511C752.762 181.574 752.137 181.511 751.613 181.402C750.769 181.222 750.09 180.941 748.675 180.198C748.222 179.964 747.761 179.722 747.66 179.667L747.464 179.573V179.347C747.464 178.823 747.363 177.44 747.261 176.503C746.972 173.885 746.386 171.495 745.558 169.619C745.464 169.401 745.386 169.213 745.386 169.19C745.386 169.174 745.62 168.979 745.902 168.768C747.558 167.525 748.675 166.822 749.879 166.291C750.09 166.197 750.293 166.127 750.34 166.119L750.527 166.221ZM762.786 167.002C763.044 167.135 763.224 167.721 763.302 168.658C763.341 169.174 763.27 169.674 763.13 169.862L763.083 169.916L762.669 169.893C762.005 169.854 761.169 169.729 760.77 169.612L760.661 169.58V169.19C760.661 168.979 760.669 168.791 760.669 168.783L760.934 168.651L761.403 168.604L761.473 168.588C761.473 168.565 761.2 168.479 761.059 168.471L760.926 168.447L760.778 168.455C760.622 168.487 760.583 168.463 760.544 168.315L760.465 168.096L760.45 167.979L760.505 167.955C760.512 167.955 760.723 167.822 760.966 167.658C761.7 167.174 762.012 167.002 762.247 166.963L762.333 166.94L762.786 167.002ZM760.895 167.002L760.848 167.065C760.825 167.08 760.59 167.252 760.34 167.455L759.879 167.815L759.739 167.822C759.2 167.838 758.793 167.776 758.481 167.619C758.239 167.502 757.989 167.322 757.989 167.275L758.184 167.236C758.309 167.283 758.598 167.338 758.778 167.338C759.02 167.338 759.411 167.275 759.903 167.158C760.317 167.057 760.755 166.971 760.848 166.963L760.895 167.002ZM752.644 167.127C752.824 167.19 753.145 167.236 753.668 167.275C754.379 167.33 754.363 167.33 754.363 167.416L754.316 167.682L754.246 168.002L754.16 168.135C754.043 168.135 753.598 168.018 753.316 167.916C752.637 167.658 752.23 167.346 752.293 167.119L752.441 167.041L752.644 167.127ZM755.707 167.213L755.77 167.229C755.801 167.197 756.785 167.518 757.129 167.682C757.653 167.932 757.793 168.002 758.067 168.182C758.223 168.291 758.489 168.393 758.637 168.408L758.731 168.416L758.762 168.518L758.653 168.682L758.27 168.815C758.254 168.815 758.176 168.83 757.895 168.908L757.864 168.987C758.012 168.955 758.739 169.166 758.817 169.252C758.833 169.268 758.84 169.377 758.833 169.533L758.817 169.784L758.715 169.854C758.661 169.893 758.418 170.088 758.184 170.284C757.95 170.479 757.668 170.705 757.559 170.776C757.098 171.112 756.106 171.495 755.692 171.495L755.481 171.424L755.403 171.291L755.192 170.682C755.082 170.44 754.902 169.893 754.879 169.737L754.856 169.596C754.801 169.307 754.77 168.565 754.809 168.174L754.824 167.947C754.84 167.76 754.981 167.416 755.082 167.322C755.192 167.221 755.317 167.182 755.496 167.19L755.707 167.213ZM759.833 168.291C759.973 168.354 759.997 168.385 760.075 168.549C760.169 168.744 760.161 169.01 760.067 169.198C759.965 169.393 759.825 169.471 759.559 169.471C759.254 169.471 759.262 169.479 759.184 169.112C759.145 168.94 759.122 168.783 759.129 168.768L759.122 168.744L759.098 168.588C759.098 168.44 759.106 168.432 759.168 168.401C759.473 168.229 759.645 168.205 759.833 168.291ZM760.38 169.862L760.684 170.049C760.934 170.221 761.122 170.315 761.286 170.33L761.411 170.346V170.495C761.411 170.58 761.403 170.776 761.387 170.924C761.372 171.08 761.356 171.479 761.341 171.815C761.301 172.667 761.262 173.088 761.137 173.839C761.083 174.175 761.005 174.456 760.966 174.464C760.919 174.471 760.63 173.878 760.208 172.901C759.676 171.674 759.379 171.104 759.004 170.604L758.848 170.346L758.981 170.159L759.106 170.002L759.215 170.018C759.403 170.041 759.473 170.034 759.747 169.916C760.044 169.799 760.208 169.784 760.38 169.862ZM762.708 170.307C762.895 170.354 763.114 170.471 763.263 170.604C763.411 170.737 763.567 170.932 763.567 170.995C763.567 171.041 762.825 172.338 762.38 173.057C761.958 173.745 761.38 174.573 761.301 174.604C761.255 174.62 761.255 174.589 761.341 174.26C761.52 173.557 761.669 172.518 761.755 171.315C761.778 171.034 761.794 170.705 761.794 170.596C761.794 170.393 761.794 170.385 761.864 170.362C762.13 170.26 762.458 170.237 762.708 170.307ZM758.543 170.932C759.083 171.698 759.419 172.338 760.106 173.971C760.247 174.315 760.364 174.612 760.364 174.628C760.364 174.69 760.294 174.675 759.856 174.526C759.083 174.26 758.356 173.956 757.504 173.526C756.903 173.229 756.332 172.917 756.332 172.893L756.387 172.713C756.52 172.299 756.817 171.893 757.223 171.549C757.465 171.346 758.325 170.745 758.379 170.745L758.543 170.932ZM767.982 174.518C768.24 174.643 768.497 174.901 768.622 175.159C768.779 175.487 768.951 176.05 769.193 177.05C769.294 177.464 769.302 177.55 769.318 177.901C769.326 178.237 769.326 178.315 769.279 178.511C769.146 179.058 768.833 179.487 768.411 179.683C767.99 179.878 766.943 179.964 766.396 179.839C766.255 179.808 766.224 179.792 766.224 179.753C766.224 179.675 766.544 179.573 767.146 179.464C767.63 179.378 767.849 179.323 767.865 179.3C767.88 179.284 767.833 179.269 767.568 179.198C767.411 179.159 766.614 179.159 766.153 179.198C765.966 179.214 765.63 179.237 765.411 179.245L765.005 179.261L764.989 179.128C764.981 179.05 764.942 178.644 764.896 178.214C764.786 177.112 764.677 176.393 764.536 175.901L764.497 175.761L764.606 175.667C764.817 175.487 765.294 175.276 766.153 174.987C766.638 174.823 766.95 174.69 767.146 174.581C767.372 174.448 767.45 174.425 767.646 174.432L767.982 174.518ZM763.817 175.807C763.911 175.862 764.145 176.503 764.255 176.987C764.38 177.534 764.481 178.573 764.466 179.097L764.458 179.355L764.13 179.464C763.95 179.527 763.731 179.581 763.653 179.589L763.497 179.605L763.481 179.495C763.474 179.433 763.45 179.206 763.427 178.995C763.403 178.784 763.317 178.175 763.239 177.644C763.091 176.667 762.989 175.964 762.989 175.854C762.989 175.8 762.997 175.792 763.184 175.784C763.442 175.776 763.778 175.784 763.817 175.807ZM758.778 175.823C759.348 175.854 760.38 175.979 760.434 176.011C760.45 176.018 760.512 176.581 760.544 176.878C760.575 177.292 760.59 177.519 760.63 178.566C760.669 179.409 760.676 179.55 760.755 180.37C760.801 180.87 760.84 181.527 760.864 182.511C760.911 183.988 760.966 184.714 761.083 185.402C761.114 185.605 761.137 185.777 761.137 185.777C761.114 185.793 760.708 185.894 760.465 185.949C759.747 186.105 759.043 186.176 758.176 186.176C757.168 186.176 756.403 186.097 755.488 185.918C755.074 185.832 754.402 185.668 754.379 185.636C754.371 185.629 754.301 185.394 754.207 185.097C753.566 183.019 753.113 180.98 752.762 178.566C752.621 177.604 752.48 176.37 752.504 176.347C752.527 176.323 753.824 176.112 754.41 176.034C755.215 175.932 756.129 175.854 756.926 175.815C757.325 175.8 758.418 175.8 758.778 175.823ZM762.177 175.987C762.309 176.487 762.403 177.222 762.52 178.792C762.559 179.331 762.606 179.855 762.622 179.972V180.183C762.598 180.198 761.903 180.323 761.434 180.402C761.247 180.433 761.153 180.433 761.153 180.425C761.153 180.409 761.137 180.175 761.114 179.909C761.028 178.808 760.997 178.089 760.981 177.089C760.973 176.511 760.973 176.034 760.981 176.034L761.153 175.995C761.341 175.948 761.684 175.917 761.958 175.917C762.153 175.909 762.153 175.909 762.177 175.987ZM762.106 180.995L762.177 181.159C762.184 181.245 762.255 181.605 762.333 181.964C762.52 182.863 762.567 183.183 762.583 183.613L762.598 183.988L762.309 184.082C762.153 184.129 761.966 184.183 761.895 184.199C761.762 184.222 761.333 184.261 761.333 184.246C761.333 184.238 761.309 183.871 761.278 183.425C761.255 182.98 761.223 182.277 761.216 181.863L761.2 181.12H761.278L761.598 181.058L761.919 180.988L762.02 180.972L762.106 180.995ZM755.84 151.766C755.629 151.798 755.332 151.93 755.051 152.118C754.817 152.274 754.426 152.665 754.27 152.907C754.051 153.235 753.918 153.673 753.949 153.899L754.145 154.149L754.277 153.938C754.488 153.501 754.817 153.087 755.113 152.86C755.285 152.735 755.559 152.61 755.785 152.555C755.926 152.524 756.035 152.516 756.324 152.524C756.52 152.532 756.707 152.548 756.739 152.555L756.832 152.485C756.895 152.344 756.879 152.243 756.793 152.102C756.606 151.852 756.207 151.704 755.84 151.766ZM763.919 154.47C763.919 154.813 764.005 155.142 764.224 155.704C764.294 155.876 764.341 156.04 764.341 156.064C764.325 156.142 764.106 156.196 763.661 156.228C763.27 156.251 763.239 156.259 763.052 156.306L762.942 156.407C762.942 156.65 763.114 156.868 763.356 156.939C763.747 157.048 764.419 156.845 764.778 156.509C764.997 156.298 764.997 156.314 764.817 156.017C764.677 155.782 764.38 155.196 764.083 154.54C764.013 154.392 763.95 154.267 763.942 154.267L763.919 154.47ZM757.528 154.423C757.465 154.774 757.692 155.462 758.09 156.142C758.184 156.29 758.239 156.423 758.239 156.454C758.223 156.587 757.832 156.689 757.504 156.657C757.403 156.65 757.176 156.61 756.989 156.579C756.535 156.501 756.481 156.501 756.442 156.587C756.371 156.759 756.364 156.821 756.41 156.923C756.52 157.204 756.965 157.368 757.598 157.368C758.122 157.368 758.325 157.298 758.622 157.025L758.809 156.743C758.856 156.587 758.84 156.431 758.778 156.306C758.754 156.259 758.606 156.095 758.457 155.939C758.145 155.61 758.075 155.501 757.825 154.915C757.731 154.696 757.629 154.47 757.606 154.407L757.551 154.298L757.528 154.423ZM760.762 154.876C760.723 154.899 760.715 154.938 760.715 155.087C760.715 155.774 761.114 156.673 761.809 157.579C761.989 157.806 762.598 158.54 762.841 158.822C763.091 159.111 763.177 159.345 763.114 159.611C763.075 159.783 762.973 159.978 762.919 160.001C762.895 160.009 762.638 160.126 762.348 160.259C761.677 160.572 761.45 160.666 761.169 160.744C760.833 160.837 760.583 160.869 760.317 160.853C759.879 160.83 759.794 160.744 759.661 160.228C759.622 160.064 759.583 159.923 759.583 159.923L759.559 159.915C759.52 159.915 759.411 160.158 759.387 160.33C759.333 160.626 759.442 160.994 759.645 161.236L759.731 161.337L760.106 161.345C761.13 161.369 762.067 161.064 763.224 160.345L763.599 160.111L763.638 159.939L763.739 159.595L763.833 159.275C763.88 159.033 763.864 158.993 763.442 158.579C762.356 157.517 761.169 155.868 761.028 155.22L760.919 154.954L760.762 154.876ZM748.41 157.603C748.168 157.689 747.988 157.884 747.894 158.165C747.832 158.337 747.839 158.353 747.949 158.251C748.097 158.103 748.152 158.079 748.293 158.079L748.441 158.103L748.386 158.329C748.332 158.501 748.316 158.595 748.308 158.876C748.293 159.267 748.332 159.525 748.449 159.759C748.597 160.064 748.589 160.072 748.605 159.415C748.621 158.908 748.621 158.806 748.675 158.665C748.761 158.392 748.933 158.275 749.136 158.345C749.261 158.384 749.355 158.517 749.527 158.861C749.613 159.033 749.715 159.212 749.761 159.267L749.84 159.361L749.855 159.189C749.933 158.47 749.527 157.79 748.894 157.595C748.714 157.54 748.582 157.54 748.41 157.603ZM763.778 161.072C762.825 161.58 762.489 161.705 761.958 161.798L761.716 161.869C761.692 161.908 761.692 162.509 761.708 162.642L761.825 162.736C761.997 162.736 762.372 162.642 762.598 162.556C763.177 162.322 763.747 161.752 764.153 161.001L764.239 160.837C764.239 160.83 764.028 160.939 763.778 161.072ZM757.575 161.564C757.746 161.884 758.207 162.236 758.723 162.431C759.348 162.674 760.325 162.83 761.091 162.806L761.325 162.799L761.317 162.463C761.317 162.275 761.301 162.072 761.294 162.009L761.27 161.9L760.411 161.884C758.997 161.861 758.262 161.752 757.543 161.447L757.575 161.564ZM757.043 162.314L756.981 162.525L757.184 162.744C757.254 162.814 757.411 163.009 757.536 163.189C757.661 163.361 757.832 163.588 757.918 163.689C758.364 164.205 758.848 164.385 759.825 164.385C760.622 164.385 761.356 164.236 761.606 164.025L761.864 163.666C761.864 163.65 761.458 163.65 760.958 163.65C759.458 163.666 758.84 163.58 758.223 163.283C757.809 163.08 757.52 162.799 757.356 162.447C757.286 162.291 757.27 162.275 757.2 162.283L757.043 162.314ZM760.255 170.737C760.106 170.83 760.083 171.049 760.215 171.174C760.403 171.362 760.7 171.221 760.7 170.955L760.614 170.776L760.255 170.737ZM760.63 172.065C760.497 172.112 760.419 172.213 760.419 172.354L760.505 172.534L760.708 172.62L760.903 172.549L760.989 172.346L760.911 172.143L760.63 172.065ZM766.849 175.62C766.232 175.729 765.732 175.979 765.45 176.323L765.349 176.448H765.466C765.732 176.448 766.005 176.331 766.607 175.972C766.966 175.753 767.185 175.643 767.333 175.597C767.45 175.557 767.114 175.573 766.849 175.62ZM766.333 176.675C766.161 176.706 765.95 176.792 765.864 176.862L765.825 176.956C765.88 176.995 766.708 176.964 767.286 176.901C767.552 176.878 767.786 176.854 767.81 176.847C767.896 176.839 767.599 176.753 767.349 176.714C767.06 176.667 766.505 176.643 766.333 176.675ZM766.107 177.714C765.966 177.753 765.786 177.839 765.763 177.87C765.739 177.909 766.114 177.925 767.138 177.94C767.99 177.948 768.083 177.948 768.005 177.917C767.888 177.862 767.45 177.761 767.161 177.714C766.841 177.667 766.278 177.667 766.107 177.714Z" fill="#0F1829" />
    <rect x="282" y="67" width="254" height="144" rx="4" fill="url(#paint1_linear_216_20458)" />
    <path d="M333.21 112.999C334.314 112.999 335.209 112.104 335.209 111C335.209 109.897 334.314 109.002 333.21 109.002C332.107 109.002 331.212 109.897 331.212 111C331.212 112.104 332.107 112.999 333.21 112.999Z" fill="#0F1829" />
    <path fill-rule="evenodd" clip-rule="evenodd" d="M323.657 109.768C323.174 110.204 322.975 110.621 322.975 111C322.975 111.38 323.174 111.797 323.657 112.232C324.139 112.668 324.864 113.082 325.802 113.44C327.674 114.155 330.294 114.607 333.211 114.607C336.128 114.607 338.748 114.155 340.62 113.44C341.558 113.082 342.283 112.668 342.765 112.232C343.248 111.797 343.447 111.38 343.447 111C343.447 110.621 343.248 110.204 342.765 109.768C342.283 109.333 341.558 108.918 340.62 108.56C338.748 107.846 336.128 107.393 333.211 107.393C330.294 107.393 327.674 107.846 325.802 108.56C324.864 108.918 324.139 109.333 323.657 109.768ZM325.454 107.65C327.463 106.883 330.206 106.418 333.211 106.418C336.216 106.418 338.959 106.883 340.968 107.65C341.97 108.033 342.816 108.5 343.418 109.045C344.021 109.589 344.422 110.249 344.422 111C344.422 111.752 344.021 112.412 343.418 112.956C342.816 113.5 341.97 113.968 340.968 114.351C338.959 115.118 336.216 115.582 333.211 115.582C330.206 115.582 327.463 115.118 325.454 114.351C324.452 113.968 323.606 113.5 323.004 112.956C322.401 112.412 322 111.752 322 111C322 110.249 322.401 109.589 323.004 109.045C323.606 108.5 324.452 108.033 325.454 107.65Z" fill="#0F1829" />
    <path fill-rule="evenodd" clip-rule="evenodd" d="M329.5 102.11C328.882 101.91 328.421 101.946 328.093 102.136C327.764 102.325 327.503 102.707 327.367 103.342C327.231 103.977 327.235 104.813 327.393 105.804C327.71 107.783 328.628 110.277 330.087 112.804C331.546 115.33 333.247 117.373 334.802 118.636C335.581 119.27 336.303 119.69 336.921 119.891C337.539 120.091 338 120.055 338.329 119.865C338.657 119.675 338.919 119.294 339.055 118.659C339.191 118.023 339.187 117.188 339.028 116.197C338.711 114.218 337.793 111.723 336.334 109.197C334.876 106.67 333.174 104.628 331.619 103.364C330.84 102.731 330.119 102.31 329.5 102.11ZM332.234 102.608C333.903 103.964 335.676 106.107 337.179 108.709C338.681 111.312 339.651 113.919 339.991 116.042C340.161 117.102 340.178 118.068 340.008 118.862C339.838 119.657 339.467 120.334 338.816 120.709C338.166 121.085 337.394 121.068 336.621 120.818C335.848 120.568 335.02 120.07 334.187 119.393C332.518 118.037 330.745 115.894 329.243 113.291C327.74 110.689 326.771 108.082 326.431 105.958C326.261 104.898 326.244 103.932 326.413 103.138C326.583 102.344 326.955 101.667 327.605 101.291C328.256 100.916 329.028 100.933 329.801 101.183C330.573 101.433 331.401 101.931 332.234 102.608Z" fill="#0F1829" />
    <path fill-rule="evenodd" clip-rule="evenodd" d="M339.055 103.342C338.919 102.706 338.657 102.325 338.329 102.135C338 101.946 337.539 101.91 336.921 102.11C336.303 102.31 335.581 102.731 334.802 103.364C333.247 104.628 331.546 106.67 330.087 109.196C328.628 111.723 327.71 114.218 327.393 116.196C327.234 117.187 327.231 118.023 327.367 118.658C327.503 119.294 327.764 119.675 328.093 119.865C328.421 120.054 328.882 120.09 329.5 119.89C330.119 119.69 330.84 119.269 331.619 118.636C333.174 117.372 334.876 115.33 336.334 112.803C337.793 110.277 338.711 107.782 339.028 105.804C339.187 104.813 339.191 103.977 339.055 103.342ZM339.991 105.958C339.65 108.081 338.681 110.688 337.179 113.291C335.676 115.893 333.903 118.036 332.234 119.393C331.401 120.07 330.573 120.568 329.8 120.818C329.028 121.068 328.256 121.085 327.605 120.709C326.954 120.333 326.583 119.656 326.413 118.862C326.243 118.068 326.261 117.102 326.431 116.042C326.771 113.919 327.74 111.311 329.243 108.709C330.745 106.107 332.518 103.964 334.187 102.607C335.02 101.93 335.848 101.432 336.621 101.182C337.394 100.932 338.166 100.915 338.816 101.291C339.467 101.667 339.838 102.344 340.008 103.138C340.178 103.932 340.16 104.898 339.991 105.958Z" fill="#0F1829" />
    <path fill-rule="evenodd" clip-rule="evenodd" d="M408.339 100.06C411.54 98.0472 415.992 98.9826 418.229 102.175C419.316 103.659 419.747 105.53 419.398 107.36C419.255 108.214 418.927 109.028 418.434 109.76C419.152 111.081 419.378 112.607 419.111 114.091C418.803 115.86 417.736 117.426 416.198 118.381L410.555 121.94C407.354 123.953 402.922 123.018 400.665 119.825C399.598 118.341 399.167 116.47 399.496 114.66C399.639 113.806 399.968 112.993 400.46 112.261C399.742 110.939 399.516 109.414 399.783 107.93C400.091 106.161 401.158 104.595 402.696 103.639L408.339 100.06ZM402.984 118.361C404.051 119.886 405.959 120.598 407.785 120.13C408.195 120.008 408.585 119.846 408.934 119.622L414.577 116.063C415.5 115.494 416.157 114.538 416.341 113.481C416.526 112.383 416.28 111.264 415.623 110.37C414.556 108.845 412.648 108.133 410.822 108.601C410.411 108.723 410.022 108.885 409.673 109.109L407.518 110.471C407.416 110.532 407.293 110.573 407.17 110.614C406.616 110.756 406.041 110.553 405.713 110.085C405.528 109.821 405.446 109.475 405.508 109.15C405.569 108.824 405.754 108.56 406.041 108.377L411.663 104.818C411.766 104.757 411.889 104.717 412.012 104.676C412.566 104.534 413.14 104.737 413.469 105.205C413.633 105.449 413.715 105.754 413.694 106.039L413.674 106.242L413.879 106.303C414.679 106.547 415.418 106.913 416.095 107.401L416.382 107.604L416.485 107.279C416.546 107.096 416.587 106.933 416.628 106.75C416.813 105.652 416.567 104.534 415.91 103.639C414.843 102.114 412.935 101.402 411.109 101.87C410.699 101.992 410.309 102.155 409.96 102.378L404.317 105.937C403.394 106.506 402.738 107.462 402.553 108.519C402.348 109.617 402.614 110.736 403.25 111.63C404.317 113.156 406.226 113.867 408.052 113.4C408.462 113.298 408.852 113.135 409.201 112.912L411.355 111.549C411.419 111.511 411.491 111.481 411.566 111.454C411.611 111.437 411.658 111.422 411.704 111.407C412.258 111.264 412.833 111.468 413.161 111.935C413.346 112.2 413.428 112.546 413.366 112.871C413.304 113.196 413.12 113.461 412.833 113.644L407.211 117.202C407.162 117.231 407.109 117.255 407.053 117.277C406.992 117.302 406.927 117.323 406.862 117.344C406.308 117.487 405.733 117.263 405.405 116.795C405.241 116.551 405.159 116.246 405.179 115.962L405.2 115.758L404.995 115.697C404.194 115.453 403.456 115.087 402.779 114.599L402.491 114.396L402.389 114.721C402.348 114.904 402.307 115.067 402.266 115.25C402.081 116.348 402.327 117.466 402.984 118.361Z" fill="#0F1829" />
    <path d="M483.269 111.648H487.214L485.241 106.741L483.269 111.648ZM485.241 99.0001L474.483 102.986L476.129 117.755L485.241 123L494.354 117.755L496 102.986L485.241 99.0001ZM491.982 117.311H489.466L488.11 113.807H482.383L481.027 117.311H478.506L485.241 101.652L491.982 117.311Z" fill="#0F1829" />
    <path d="M341.551 169.97C341.429 169.97 341.311 169.995 341.206 170.054L337.891 171.969C337.676 172.092 337.546 172.326 337.546 172.574V176.396C337.546 176.644 337.676 176.877 337.891 177.001L338.757 177.501C339.177 177.708 339.332 177.705 339.524 177.705C340.146 177.705 340.502 177.327 340.502 176.671V172.898C340.502 172.844 340.456 172.806 340.404 172.806H339.988C339.935 172.806 339.89 172.844 339.89 172.898V176.671C339.89 176.962 339.587 177.254 339.094 177.008L338.194 176.48C338.162 176.463 338.137 176.433 338.137 176.396V172.574C338.137 172.538 338.161 172.501 338.194 172.483L341.502 170.575C341.517 170.566 341.534 170.562 341.551 170.562C341.568 170.562 341.585 170.566 341.6 170.575L344.908 172.483C344.94 172.502 344.965 172.537 344.965 172.574V176.396C344.965 176.433 344.946 176.47 344.915 176.488L341.6 178.395C341.572 178.412 341.533 178.412 341.502 178.395L340.65 177.888C340.637 177.881 340.622 177.878 340.608 177.878C340.593 177.878 340.578 177.881 340.565 177.888C340.33 178.022 340.286 178.037 340.066 178.113C340.011 178.132 339.929 178.162 340.094 178.254L341.206 178.909C341.311 178.969 341.43 179.001 341.551 179C341.672 179.001 341.791 178.97 341.896 178.909L345.211 177.001C345.425 176.877 345.556 176.644 345.556 176.396V172.574C345.556 172.326 345.425 172.093 345.211 171.969L341.896 170.054C341.792 169.995 341.673 169.97 341.551 169.97L341.551 169.97Z" fill="#0F1829" />
    <path d="M342.437 172.701C341.493 172.701 340.931 173.103 340.931 173.771C340.931 174.495 341.489 174.695 342.395 174.784C343.479 174.89 343.563 175.049 343.563 175.263C343.563 175.633 343.268 175.791 342.571 175.791C341.695 175.791 341.502 175.572 341.438 175.136C341.43 175.089 341.394 175.052 341.346 175.052H340.917C340.864 175.052 340.818 175.097 340.818 175.15C340.818 175.708 341.122 176.368 342.571 176.368C343.62 176.368 344.225 175.956 344.225 175.235C344.225 174.52 343.736 174.327 342.719 174.193C341.691 174.057 341.593 173.99 341.593 173.75C341.593 173.551 341.676 173.285 342.437 173.285C343.117 173.285 343.369 173.432 343.472 173.89C343.481 173.933 343.519 173.968 343.563 173.968H343.993C344.019 173.968 344.045 173.951 344.063 173.932C344.081 173.912 344.094 173.889 344.091 173.862C344.025 173.072 343.498 172.701 342.437 172.701Z" fill="#0F1829" />
    <path d="M348.507 155C348.47 155 348.434 155.01 348.402 155.028C348.37 155.047 348.343 155.074 348.325 155.106C348.306 155.138 348.296 155.174 348.296 155.211V160.596C348.296 160.649 348.271 160.696 348.226 160.723C348.203 160.736 348.178 160.743 348.152 160.743C348.126 160.743 348.1 160.736 348.078 160.723L347.198 160.216C347.134 160.179 347.061 160.159 346.987 160.159C346.913 160.159 346.84 160.179 346.776 160.216L343.263 162.243C343.132 162.319 343.052 162.464 343.052 162.616V166.67C343.052 166.822 343.132 166.96 343.263 167.036L346.776 169.063C346.84 169.101 346.913 169.12 346.987 169.12C347.061 169.12 347.134 169.101 347.198 169.063L350.71 167.036C350.775 166.999 350.828 166.946 350.865 166.882C350.902 166.817 350.922 166.744 350.921 166.67V156.563C350.921 156.487 350.901 156.412 350.863 156.347C350.824 156.281 350.769 156.227 350.703 156.19L348.613 155.021C348.58 155.003 348.544 155 348.507 155ZM325.913 160.061C325.847 160.064 325.784 160.075 325.723 160.11L322.211 162.137C322.147 162.174 322.093 162.228 322.056 162.292C322.019 162.356 322 162.429 322 162.503L322.007 167.944C322.007 168.02 322.046 168.09 322.113 168.127C322.144 168.146 322.181 168.157 322.218 168.157C322.255 168.157 322.292 168.146 322.324 168.127L324.407 166.931C324.539 166.852 324.625 166.716 324.625 166.565V164.024C324.625 163.872 324.705 163.733 324.837 163.658L325.723 163.144C325.787 163.107 325.86 163.087 325.935 163.088C326.007 163.088 326.081 163.106 326.146 163.144L327.033 163.658C327.097 163.695 327.15 163.748 327.188 163.812C327.225 163.877 327.244 163.95 327.244 164.024V166.565C327.244 166.716 327.331 166.853 327.462 166.931L329.545 168.127C329.577 168.146 329.614 168.157 329.651 168.157C329.688 168.157 329.725 168.146 329.756 168.127C329.789 168.109 329.815 168.082 329.834 168.05C329.852 168.018 329.862 167.981 329.862 167.944L329.869 162.503C329.869 162.429 329.85 162.356 329.813 162.292C329.776 162.228 329.722 162.174 329.658 162.137L326.146 160.11C326.086 160.075 326.023 160.064 325.956 160.061H325.913ZM357.474 160.11C357.401 160.11 357.329 160.129 357.263 160.167L353.751 162.194C353.687 162.231 353.633 162.284 353.596 162.348C353.559 162.413 353.54 162.486 353.54 162.56V166.614C353.54 166.766 353.626 166.905 353.758 166.98L357.242 168.965C357.371 169.038 357.528 169.044 357.657 168.972L359.769 167.796C359.836 167.759 359.881 167.69 359.881 167.613C359.882 167.576 359.872 167.54 359.854 167.507C359.835 167.475 359.808 167.449 359.776 167.43L356.243 165.403C356.176 165.365 356.13 165.289 356.13 165.213V163.946C356.13 163.87 356.177 163.801 356.243 163.763L357.341 163.13C357.373 163.111 357.409 163.101 357.446 163.101C357.483 163.101 357.52 163.111 357.552 163.13L358.65 163.763C358.682 163.782 358.709 163.808 358.727 163.841C358.746 163.873 358.755 163.909 358.755 163.946V164.946C358.755 164.983 358.765 165.019 358.783 165.051C358.802 165.083 358.829 165.11 358.861 165.129C358.927 165.167 359.006 165.167 359.072 165.129L361.177 163.904C361.241 163.867 361.294 163.814 361.331 163.749C361.368 163.685 361.388 163.612 361.388 163.538V162.56C361.388 162.409 361.308 162.27 361.177 162.194L357.685 160.167C357.621 160.129 357.548 160.11 357.474 160.11V160.11ZM346.973 163.137C346.991 163.137 347.013 163.141 347.029 163.151L348.233 163.848C348.265 163.867 348.289 163.901 348.289 163.939V165.333C348.289 165.371 348.266 165.405 348.233 165.424L347.029 166.121C347.013 166.13 346.995 166.135 346.976 166.135C346.958 166.135 346.94 166.13 346.924 166.121L345.72 165.424C345.687 165.405 345.664 165.371 345.664 165.333V163.939C345.664 163.901 345.687 163.867 345.72 163.848L346.924 163.151C346.938 163.142 346.955 163.137 346.973 163.137V163.137H346.973Z" fill="#0F1829" />
    <path d="M336.465 160.089C336.392 160.089 336.319 160.108 336.254 160.146L332.741 162.166C332.61 162.241 332.53 162.387 332.53 162.539V166.593C332.53 166.744 332.61 166.883 332.741 166.959L336.254 168.986C336.318 169.023 336.391 169.043 336.465 169.043C336.539 169.043 336.612 169.023 336.676 168.986L340.188 166.959C340.253 166.922 340.306 166.868 340.343 166.804C340.38 166.74 340.4 166.667 340.399 166.593V162.539C340.399 162.387 340.32 162.241 340.188 162.166L336.676 160.146C336.612 160.108 336.539 160.089 336.465 160.089ZM357.468 163.707C357.454 163.707 357.438 163.707 357.426 163.714L356.75 164.108C356.737 164.115 356.727 164.125 356.719 164.138C356.712 164.15 356.708 164.164 356.708 164.179V164.953C356.708 164.982 356.725 165.009 356.75 165.023L357.426 165.41C357.451 165.425 357.478 165.425 357.503 165.41L358.179 165.023C358.191 165.016 358.202 165.006 358.209 164.994C358.217 164.981 358.221 164.967 358.221 164.953V164.179C358.221 164.164 358.217 164.15 358.209 164.138C358.202 164.125 358.191 164.115 358.179 164.108L357.503 163.714C357.491 163.707 357.482 163.707 357.468 163.707V163.707Z" fill="#0F1829" />
    <path fill-rule="evenodd" clip-rule="evenodd" d="M415.464 158C415.464 156.343 412.778 155 409.464 155C406.151 155 403.464 156.343 403.464 158V160.4H409.464V161H403.464H400.464C398.807 161 397.464 163.687 397.464 167C397.464 170.314 398.807 173 400.464 173H402.864C402.864 171.492 402.958 170.338 403.178 169.459C403.399 168.574 403.753 167.945 404.289 167.516C404.821 167.091 405.495 166.893 406.292 166.796C407.084 166.7 408.036 166.7 409.148 166.7H409.164C410.445 166.7 411.477 166.7 412.315 166.608C413.152 166.517 413.755 166.338 414.198 166.009C414.634 165.687 414.951 165.193 415.16 164.393C415.37 163.587 415.464 162.493 415.464 161V158ZM416.064 161C416.064 162.508 415.971 163.663 415.741 164.545C415.509 165.433 415.132 166.064 414.555 166.491C413.986 166.913 413.258 167.109 412.38 167.205C411.506 167.3 410.442 167.3 409.18 167.3H409.164C408.033 167.3 407.116 167.301 406.364 167.392C405.615 167.483 405.07 167.66 404.664 167.985C404.263 168.306 403.961 168.801 403.76 169.604C403.558 170.412 403.464 171.508 403.464 173V176C403.464 177.657 406.151 179 409.464 179C412.778 179 415.464 177.657 415.464 176V173.6H409.464V173H415.464H418.464C420.121 173 421.464 170.314 421.464 167C421.464 163.687 420.121 161 418.464 161H416.064ZM407.274 158C407.274 158.613 406.777 159.11 406.164 159.11C405.551 159.11 405.054 158.613 405.054 158C405.054 157.387 405.551 156.89 406.164 156.89C406.777 156.89 407.274 157.387 407.274 158ZM412.764 177.11C413.377 177.11 413.874 176.613 413.874 176C413.874 175.387 413.377 174.89 412.764 174.89C412.151 174.89 411.654 175.387 411.654 176C411.654 176.613 412.151 177.11 412.764 177.11Z" fill="#0F1829" />
    <path d="M459.393 167.384C459.295 167.279 459.175 167.196 459.043 167.138C458.91 167.079 458.769 167.052 458.624 167.052C458.479 167.049 458.338 167.079 458.206 167.135C458.073 167.193 457.953 167.276 457.855 167.381C457.753 167.483 457.673 167.603 457.621 167.735C457.569 167.87 457.541 168.012 457.541 168.153C457.538 168.298 457.566 168.439 457.621 168.572C457.676 168.704 457.756 168.824 457.858 168.926C457.956 169.03 458.076 169.113 458.208 169.169C458.341 169.224 458.483 169.252 458.627 169.249C458.771 169.249 458.913 169.221 459.045 169.166C459.177 169.11 459.297 169.028 459.396 168.926C459.501 168.827 459.581 168.707 459.636 168.575C459.692 168.442 459.719 168.301 459.719 168.156C459.719 168.012 459.692 167.87 459.636 167.738C459.578 167.603 459.498 167.483 459.393 167.384ZM472.269 164.886C472.254 165.575 472.288 166.267 472.368 166.953H472.331C472.245 166.784 472.054 166.47 471.762 166.012L464.747 155H462.618V169.058H464.254V158.895C464.273 158.252 464.245 157.609 464.178 156.966H464.239C464.356 157.274 464.507 157.569 464.685 157.846L471.891 169.058H473.906V155H472.269V164.886ZM485.004 167.513H479.22V162.643H484.281V161.16H479.22V156.489H484.65V155H477.543V169.058H484.995L485.004 167.513ZM486.256 155V156.489H490.287V169.058H491.923V156.489H496V155H486.256ZM470.214 172.553C469.805 172.716 469.436 172.965 469.131 173.282C468.817 173.618 468.571 174.011 468.411 174.445C468.251 174.879 468.18 175.337 468.199 175.796C468.168 176.645 468.463 177.476 469.03 178.11C469.313 178.408 469.657 178.639 470.039 178.793C470.42 178.946 470.829 179.014 471.239 178.996C471.854 179.017 472.466 178.888 473.023 178.617L473.029 177.9C472.519 178.199 471.937 178.346 471.346 178.331C471.029 178.343 470.712 178.288 470.42 178.168C470.128 178.048 469.863 177.863 469.648 177.63C469.198 177.106 468.966 176.43 469.002 175.74C468.965 175.011 469.214 174.297 469.694 173.75C469.922 173.498 470.202 173.301 470.513 173.165C470.824 173.033 471.161 172.969 471.5 172.978C472.039 172.968 472.568 173.101 473.038 173.362V172.59C472.55 172.393 472.026 172.301 471.5 172.319C471.06 172.313 470.62 172.39 470.214 172.553ZM477.884 174.756C477.679 174.54 477.429 174.37 477.151 174.26C476.874 174.149 476.576 174.1 476.278 174.116C475.961 174.101 475.648 174.153 475.352 174.267C475.057 174.381 474.789 174.553 474.561 174.771C474.34 175.017 474.171 175.304 474.06 175.617C473.949 175.931 473.903 176.26 473.925 176.593C473.894 177.223 474.112 177.842 474.531 178.313C474.74 178.537 474.992 178.716 475.275 178.836C475.558 178.953 475.863 179.011 476.168 178.999C476.478 179.008 476.789 178.949 477.078 178.829C477.367 178.709 477.626 178.528 477.838 178.297C478.27 177.811 478.493 177.174 478.46 176.525C478.497 175.879 478.29 175.248 477.884 174.756ZM477.321 177.916C477.186 178.072 477.016 178.195 476.826 178.276C476.636 178.356 476.429 178.392 476.223 178.38C476.011 178.39 475.801 178.35 475.608 178.27C475.414 178.186 475.241 178.063 475.1 177.903C474.805 177.538 474.657 177.077 474.685 176.608C474.657 176.125 474.805 175.648 475.1 175.267C475.238 175.107 475.411 174.981 475.604 174.894C475.798 174.811 476.011 174.771 476.22 174.781C476.429 174.768 476.635 174.808 476.826 174.891C477.017 174.974 477.186 175.1 477.321 175.26C477.601 175.647 477.737 176.119 477.706 176.596C477.737 177.063 477.601 177.534 477.321 177.916ZM480.887 174.454C480.656 174.661 480.487 174.928 480.404 175.227V174.261H479.635V178.888H480.404V176.528C480.38 176.1 480.49 175.673 480.718 175.31C480.801 175.177 480.912 175.067 481.047 174.99C481.183 174.913 481.333 174.867 481.487 174.864C481.684 174.848 481.881 174.901 482.047 175.011V174.248C481.906 174.202 481.758 174.181 481.61 174.187C481.346 174.184 481.09 174.279 480.887 174.454ZM486.548 176.365C486.585 175.777 486.41 175.199 486.056 174.731C485.881 174.534 485.665 174.377 485.422 174.276C485.179 174.174 484.918 174.128 484.656 174.144C484.367 174.134 484.078 174.193 483.81 174.31C483.545 174.427 483.309 174.602 483.118 174.824C482.7 175.311 482.483 175.939 482.512 176.58C482.472 177.22 482.672 177.854 483.072 178.353C483.265 178.565 483.505 178.731 483.77 178.842C484.035 178.953 484.324 178.999 484.61 178.986C485.179 179.014 485.742 178.86 486.216 178.546V177.851C485.811 178.18 485.307 178.362 484.785 178.368C484.585 178.38 484.382 178.35 484.195 178.276C484.007 178.202 483.835 178.094 483.693 177.95C483.418 177.617 483.279 177.193 483.302 176.762H486.555L486.548 176.365ZM483.296 176.15C483.336 175.784 483.496 175.439 483.749 175.171C483.862 175.05 483.999 174.953 484.151 174.888C484.304 174.823 484.469 174.79 484.635 174.793C484.795 174.784 484.952 174.811 485.099 174.873C485.247 174.934 485.376 175.027 485.481 175.147C485.696 175.433 485.804 175.784 485.788 176.14L483.296 176.15Z" fill="#0F1829" />
    <rect x="976" y="67" width="254" height="144" rx="4" fill="url(#paint2_linear_216_20458)" />
    <path d="M1035.85 105.626L1038.45 103.031L1038.62 101.938C1033.89 97.6382 1026.38 98.1258 1022.11 102.956C1020.93 104.297 1020.05 105.97 1019.58 107.697L1020.51 107.566L1025.7 106.71L1026.1 106.3C1028.41 103.764 1032.31 103.423 1034.98 105.581L1035.85 105.626Z" fill="#0F1829" />
    <path d="M1042.15 107.62C1041.55 105.424 1040.32 103.449 1038.62 101.938L1034.98 105.581C1036.52 106.837 1037.39 108.731 1037.36 110.716V111.363C1039.15 111.363 1040.6 112.814 1040.6 114.604C1040.6 116.395 1039.15 117.81 1037.36 117.81H1030.86L1030.23 118.502V122.39L1030.86 123H1037.36C1042.01 123.036 1045.82 119.327 1045.85 114.67C1045.88 111.848 1044.48 109.202 1042.15 107.62Z" fill="#0F1829" />
    <path d="M1024.38 123H1030.86V117.81H1024.38C1023.92 117.81 1023.47 117.71 1023.05 117.518L1022.13 117.801L1019.52 120.396L1019.29 121.279C1020.76 122.386 1022.54 123.008 1024.38 123Z" fill="#0F1829" />
    <path d="M1024.38 106.163C1019.72 106.191 1015.97 109.989 1016 114.645C1016.02 117.246 1017.23 119.694 1019.29 121.279L1023.05 117.518C1021.42 116.781 1020.7 114.861 1021.43 113.229C1022.17 111.598 1024.09 110.873 1025.72 111.61C1026.44 111.935 1027.02 112.51 1027.34 113.229L1031.1 109.469C1029.5 107.377 1027.02 106.154 1024.38 106.163Z" fill="#0F1829" />
    <path fill-rule="evenodd" clip-rule="evenodd" d="M1093.96 107.716C1093.96 108.21 1094.02 108.611 1094.11 108.904C1094.22 109.198 1094.35 109.518 1094.54 109.865C1094.6 109.972 1094.63 110.079 1094.63 110.172C1094.63 110.306 1094.55 110.439 1094.38 110.573L1093.54 111.133C1093.42 111.214 1093.3 111.254 1093.19 111.254C1093.06 111.254 1092.92 111.187 1092.79 111.067C1092.6 110.867 1092.44 110.653 1092.31 110.439C1092.17 110.212 1092.04 109.959 1091.89 109.652C1090.85 110.88 1089.54 111.494 1087.97 111.494C1086.85 111.494 1085.95 111.173 1085.3 110.533C1084.65 109.892 1084.31 109.038 1084.31 107.97C1084.31 106.835 1084.71 105.914 1085.53 105.22C1086.34 104.526 1087.42 104.179 1088.8 104.179C1089.25 104.179 1089.72 104.219 1090.21 104.286C1090.71 104.353 1091.21 104.459 1091.75 104.58V103.605C1091.75 102.591 1091.53 101.883 1091.12 101.47C1090.69 101.056 1089.97 100.855 1088.94 100.855C1088.48 100.855 1088 100.909 1087.5 101.029C1087.01 101.149 1086.53 101.296 1086.06 101.483C1085.85 101.576 1085.69 101.63 1085.59 101.656C1085.5 101.683 1085.43 101.696 1085.38 101.696C1085.19 101.696 1085.1 101.563 1085.1 101.282V100.628C1085.1 100.415 1085.13 100.255 1085.19 100.161C1085.26 100.068 1085.38 99.9744 1085.57 99.881C1086.03 99.6406 1086.59 99.4404 1087.25 99.2803C1087.9 99.1068 1088.6 99.0267 1089.33 99.0267C1090.92 99.0267 1092.08 99.3871 1092.83 100.108C1093.56 100.829 1093.94 101.923 1093.94 103.391V107.716H1093.96L1093.96 107.716ZM1088.54 109.745C1088.98 109.745 1089.44 109.665 1089.92 109.505C1090.4 109.345 1090.83 109.051 1091.19 108.651C1091.4 108.397 1091.56 108.117 1091.64 107.797C1091.72 107.476 1091.77 107.089 1091.77 106.635V106.075C1091.39 105.981 1090.97 105.901 1090.55 105.848C1090.12 105.794 1089.7 105.768 1089.29 105.768C1088.4 105.768 1087.74 105.941 1087.3 106.302C1086.86 106.662 1086.65 107.169 1086.65 107.837C1086.65 108.464 1086.81 108.931 1087.14 109.251C1087.46 109.585 1087.93 109.745 1088.54 109.745L1088.54 109.745ZM1099.26 111.187C1099.02 111.187 1098.86 111.147 1098.75 111.053C1098.65 110.973 1098.55 110.786 1098.47 110.533L1095.34 100.215C1095.26 99.9478 1095.22 99.7743 1095.22 99.6809C1095.22 99.4673 1095.32 99.3471 1095.54 99.3471H1096.85C1097.1 99.3471 1097.27 99.3872 1097.37 99.4806C1097.47 99.5607 1097.55 99.7476 1097.63 100.001L1099.88 108.838L1101.96 100.001C1102.03 99.7343 1102.11 99.5607 1102.21 99.4806C1102.32 99.4006 1102.51 99.3471 1102.75 99.3471H1103.81C1104.07 99.3471 1104.24 99.3872 1104.35 99.4806C1104.45 99.5607 1104.55 99.7476 1104.6 100.001L1106.71 108.944L1109.02 100.001C1109.1 99.7343 1109.19 99.5607 1109.29 99.4806C1109.39 99.4006 1109.57 99.3471 1109.81 99.3471H1111.05C1111.26 99.3471 1111.38 99.4539 1111.38 99.6809C1111.38 99.7476 1111.37 99.8144 1111.36 99.8945C1111.34 99.9745 1111.32 100.081 1111.26 100.228L1108.05 110.546C1107.97 110.813 1107.87 110.987 1107.76 111.067C1107.66 111.147 1107.48 111.2 1107.26 111.2H1106.11C1105.86 111.2 1105.68 111.16 1105.58 111.067C1105.47 110.973 1105.38 110.8 1105.32 110.533L1103.25 101.923L1101.2 110.519C1101.13 110.786 1101.05 110.96 1100.94 111.053C1100.84 111.147 1100.65 111.187 1100.41 111.187H1099.26H1099.26ZM1116.41 111.547C1115.72 111.547 1115.03 111.467 1114.36 111.307C1113.69 111.147 1113.17 110.973 1112.82 110.773C1112.61 110.653 1112.46 110.519 1112.41 110.399C1112.36 110.279 1112.33 110.146 1112.33 110.026V109.345C1112.33 109.064 1112.44 108.931 1112.64 108.931C1112.72 108.931 1112.8 108.944 1112.88 108.971C1112.96 108.998 1113.08 109.051 1113.21 109.105C1113.66 109.305 1114.16 109.465 1114.68 109.572C1115.21 109.679 1115.73 109.732 1116.27 109.732C1117.11 109.732 1117.76 109.585 1118.22 109.291C1118.67 108.998 1118.91 108.57 1118.91 108.023C1118.91 107.65 1118.79 107.343 1118.55 107.089C1118.31 106.835 1117.86 106.608 1117.2 106.395L1115.27 105.794C1114.29 105.487 1113.57 105.033 1113.13 104.433C1112.69 103.845 1112.46 103.191 1112.46 102.497C1112.46 101.937 1112.58 101.443 1112.82 101.016C1113.06 100.588 1113.38 100.215 1113.78 99.9211C1114.19 99.614 1114.64 99.3872 1115.17 99.227C1115.71 99.0667 1116.27 99 1116.86 99C1117.15 99 1117.46 99.0134 1117.75 99.0533C1118.06 99.0934 1118.34 99.1468 1118.62 99.2001C1118.88 99.2668 1119.14 99.3336 1119.38 99.4137C1119.62 99.4938 1119.81 99.5738 1119.94 99.654C1120.13 99.7608 1120.26 99.8676 1120.34 99.9876C1120.42 100.094 1120.46 100.241 1120.46 100.428V101.056C1120.46 101.336 1120.35 101.483 1120.15 101.483C1120.05 101.483 1119.87 101.429 1119.64 101.323C1118.88 100.976 1118.03 100.802 1117.08 100.802C1116.32 100.802 1115.72 100.922 1115.31 101.176C1114.89 101.429 1114.68 101.816 1114.68 102.364C1114.68 102.737 1114.81 103.058 1115.08 103.311C1115.35 103.565 1115.84 103.819 1116.55 104.045L1118.44 104.646C1119.4 104.953 1120.1 105.38 1120.51 105.927C1120.93 106.475 1121.13 107.102 1121.13 107.796C1121.13 108.37 1121.01 108.891 1120.78 109.345C1120.54 109.798 1120.22 110.199 1119.81 110.519C1119.39 110.853 1118.9 111.093 1118.32 111.267C1117.72 111.453 1117.1 111.547 1116.41 111.547L1116.41 111.547Z" fill="#0F1829" />
    <path fill-rule="evenodd" clip-rule="evenodd" d="M1118.93 118.031C1114.54 121.277 1108.16 123 1102.68 123C1094.99 123 1088.06 120.155 1082.83 115.426C1082.42 115.052 1082.79 114.544 1083.28 114.838C1088.94 118.124 1095.92 120.115 1103.14 120.115C1108.02 120.115 1113.37 119.1 1118.29 117.016C1119.03 116.682 1119.65 117.496 1118.93 118.031Z" fill="#0F1829" />
    <path fill-rule="evenodd" clip-rule="evenodd" d="M1120.78 115.951C1120.21 115.23 1117.06 115.604 1115.62 115.777C1115.2 115.831 1115.13 115.457 1115.52 115.177C1118.03 113.417 1122.17 113.923 1122.65 114.51C1123.13 115.11 1122.51 119.232 1120.16 121.205C1119.8 121.512 1119.45 121.352 1119.61 120.952C1120.15 119.632 1121.34 116.658 1120.78 115.951H1120.78Z" fill="#0F1829" />
    <path fill-rule="evenodd" clip-rule="evenodd" d="M1178.47 102.616L1173.98 111.784L1181.89 121.073L1167.2 122.761L1190 123L1178.47 102.616ZM1177.59 99L1167.26 107.744L1159.6 120.831L1166.12 120.158L1177.59 99Z" fill="#0F1829" />
    <path d="M1073.78 165.625C1073.74 165.22 1073.67 164.752 1073.55 164.241C1073.42 163.73 1073.21 163.176 1072.94 162.58C1072.64 162.005 1072.28 161.388 1071.8 160.813C1071.61 160.579 1071.4 160.366 1071.19 160.132C1071.53 158.79 1070.79 157.619 1070.79 157.619C1069.51 157.534 1068.71 158.024 1068.41 158.237C1068.37 158.216 1068.31 158.194 1068.26 158.173C1068.05 158.088 1067.82 158.003 1067.59 157.917C1067.36 157.853 1067.13 157.768 1066.9 157.725C1066.67 157.661 1066.41 157.619 1066.16 157.576C1066.12 157.576 1066.08 157.555 1066.03 157.555C1065.49 155.766 1063.89 155 1063.89 155C1062.06 156.193 1061.7 157.79 1061.7 157.79C1061.7 157.79 1061.7 157.833 1061.68 157.875C1061.57 157.896 1061.49 157.939 1061.38 157.96C1061.26 158.003 1061.11 158.045 1060.98 158.109C1060.86 158.173 1060.71 158.215 1060.58 158.279C1060.31 158.407 1060.06 158.535 1059.78 158.684C1059.53 158.827 1059.29 158.984 1059.05 159.153C1059.01 159.132 1058.99 159.11 1058.99 159.11C1056.52 158.152 1054.34 159.302 1054.34 159.302C1054.15 161.963 1055.32 163.624 1055.56 163.922C1055.49 164.092 1055.45 164.241 1055.39 164.412C1055.2 165.017 1055.07 165.637 1054.99 166.265C1054.97 166.35 1054.97 166.457 1054.95 166.542C1052.67 167.671 1052 170.013 1052 170.013C1053.89 172.228 1056.12 172.356 1056.12 172.356C1056.4 172.867 1056.73 173.352 1057.09 173.803C1057.24 173.995 1057.41 174.165 1057.58 174.357C1056.88 176.359 1057.68 178.041 1057.68 178.041C1059.81 178.126 1061.19 177.104 1061.49 176.87L1062.12 177.062C1062.77 177.232 1063.45 177.339 1064.1 177.36H1064.96C1065.95 178.808 1067.72 179 1067.72 179C1068.96 177.658 1069.04 176.359 1069.04 176.061V176.04V175.997V175.933C1069.3 175.741 1069.55 175.55 1069.8 175.337C1070.31 174.89 1070.73 174.357 1071.11 173.804C1071.15 173.761 1071.17 173.699 1071.21 173.656C1072.62 173.74 1073.61 172.762 1073.61 172.762C1073.38 171.271 1072.54 170.547 1072.37 170.419L1072.35 170.398L1072.33 170.377L1072.31 170.356C1072.31 170.271 1072.33 170.186 1072.33 170.079C1072.35 169.909 1072.35 169.76 1072.35 169.589V169.376V169.099V168.971C1072.35 168.928 1072.35 168.886 1072.33 168.843L1072.28 168.587C1072.26 168.417 1072.22 168.268 1072.2 168.097C1072.05 167.467 1071.81 166.864 1071.49 166.308C1071.16 165.77 1070.75 165.282 1070.29 164.86C1069.83 164.456 1069.32 164.126 1068.77 163.88C1068.25 163.633 1067.68 163.475 1067.11 163.411C1066.84 163.368 1066.54 163.368 1066.27 163.368H1066.14H1065.85C1065.7 163.389 1065.55 163.411 1065.43 163.432C1064.86 163.538 1064.33 163.751 1063.87 164.028C1063.41 164.305 1063.01 164.667 1062.67 165.071C1062.34 165.455 1062.09 165.895 1061.91 166.37C1061.74 166.817 1061.64 167.307 1061.62 167.754V168.265C1061.62 168.329 1061.62 168.371 1061.64 168.435C1061.7 169.091 1061.94 169.716 1062.33 170.245C1062.59 170.586 1062.86 170.841 1063.17 171.054C1063.49 171.267 1063.81 171.416 1064.14 171.523C1064.48 171.63 1064.79 171.672 1065.09 171.651H1065.53C1065.57 171.651 1065.61 171.63 1065.63 171.63C1065.68 171.63 1065.7 171.609 1065.74 171.609C1065.8 171.588 1065.89 171.566 1065.95 171.545C1066.08 171.502 1066.2 171.439 1066.33 171.396C1066.45 171.332 1066.56 171.268 1066.64 171.204C1066.66 171.183 1066.71 171.161 1066.73 171.14C1066.75 171.12 1066.77 171.096 1066.79 171.068C1066.81 171.041 1066.82 171.01 1066.82 170.978C1066.82 170.947 1066.82 170.914 1066.81 170.883C1066.8 170.853 1066.79 170.824 1066.77 170.799C1066.73 170.758 1066.68 170.731 1066.62 170.719C1066.57 170.708 1066.51 170.713 1066.45 170.735C1066.43 170.756 1066.41 170.756 1066.37 170.778C1066.28 170.823 1066.19 170.858 1066.1 170.884C1065.99 170.905 1065.89 170.948 1065.78 170.969C1065.72 170.969 1065.68 170.99 1065.61 170.99H1065.26C1065.26 170.99 1065.24 170.99 1065.26 170.99H1065.17C1065.15 170.99 1065.11 170.99 1065.09 170.969C1064.86 170.926 1064.6 170.863 1064.37 170.756C1064.14 170.649 1063.91 170.5 1063.72 170.309C1063.51 170.117 1063.34 169.904 1063.19 169.649C1063.05 169.394 1062.96 169.117 1062.92 168.84C1062.9 168.691 1062.88 168.542 1062.9 168.393V168.265C1062.9 168.286 1062.9 168.265 1062.9 168.265V168.222V168.158C1062.9 168.073 1062.92 168.009 1062.94 167.924C1063.05 167.266 1063.37 166.661 1063.85 166.199C1063.97 166.071 1064.1 165.965 1064.25 165.88C1064.4 165.774 1064.54 165.688 1064.69 165.624C1064.84 165.56 1065 165.496 1065.17 165.454C1065.34 165.411 1065.51 165.369 1065.68 165.369C1065.76 165.369 1065.85 165.348 1065.93 165.348H1066.1C1066.12 165.348 1066.1 165.348 1066.1 165.348H1066.18C1066.74 165.396 1067.29 165.563 1067.78 165.838C1068.46 166.221 1069.02 166.796 1069.36 167.499C1069.53 167.84 1069.66 168.223 1069.72 168.628C1069.74 168.734 1069.74 168.82 1069.76 168.926V169.48C1069.76 169.586 1069.74 169.693 1069.74 169.799C1069.72 169.905 1069.72 170.012 1069.7 170.118L1069.63 170.437C1069.61 170.543 1069.51 170.842 1069.45 171.055C1069.38 171.268 1069.09 171.843 1068.83 172.184C1068.32 172.891 1067.64 173.456 1066.86 173.823C1066.46 173.993 1066.06 174.142 1065.64 174.206C1065.43 174.249 1065.22 174.27 1065 174.27H1064.69C1064.71 174.27 1064.69 174.27 1064.69 174.27H1064.67C1064.56 174.27 1064.44 174.27 1064.33 174.249C1063.87 174.206 1063.43 174.121 1062.99 173.993C1062.54 173.865 1062.12 173.696 1061.72 173.483C1060.92 173.046 1060.21 172.452 1059.64 171.737C1059.37 171.375 1059.11 170.992 1058.9 170.587C1058.69 170.182 1058.55 169.756 1058.42 169.331C1058.3 168.901 1058.23 168.458 1058.21 168.011V167.521V167.351C1058.21 167.138 1058.23 166.904 1058.27 166.67C1058.29 166.436 1058.34 166.223 1058.38 165.989C1058.42 165.755 1058.48 165.542 1058.54 165.308C1058.61 165.074 1058.82 164.435 1059.01 164.03C1059.39 163.221 1059.87 162.497 1060.44 161.922C1060.59 161.773 1060.73 161.646 1060.9 161.518C1060.97 161.454 1061.11 161.326 1061.28 161.22C1061.45 161.114 1061.62 161.007 1061.81 160.922C1061.89 160.879 1061.97 160.837 1062.08 160.794C1062.12 160.773 1062.16 160.751 1062.23 160.73C1062.27 160.709 1062.31 160.687 1062.37 160.666C1062.56 160.581 1062.75 160.517 1062.94 160.453C1062.99 160.432 1063.05 160.432 1063.09 160.41C1063.13 160.388 1063.19 160.389 1063.24 160.367C1063.28 160.345 1063.43 160.324 1063.53 160.282C1063.57 160.261 1063.64 160.261 1063.68 160.239C1063.72 160.239 1063.78 160.218 1063.83 160.218C1063.87 160.218 1063.93 160.197 1063.97 160.197L1064.14 160.154C1064.18 160.154 1064.25 160.133 1064.29 160.133C1064.35 160.133 1064.39 160.112 1064.46 160.112C1064.5 160.112 1064.58 160.091 1064.62 160.091C1064.67 160.091 1064.69 160.091 1064.73 160.07H1064.88C1064.94 160.07 1064.98 160.07 1065.04 160.049H1065.13C1065.13 160.049 1065.15 160.049 1065.13 160.049H1065.91C1066.29 160.07 1066.66 160.113 1067.02 160.177C1067.73 160.3 1068.41 160.53 1069.04 160.858C1069.63 161.146 1070.18 161.511 1070.68 161.943C1070.7 161.964 1070.75 161.986 1070.77 162.028C1070.79 162.049 1070.83 162.071 1070.85 162.113C1070.91 162.156 1070.96 162.219 1071.02 162.262C1071.08 162.305 1071.12 162.368 1071.19 162.411C1071.23 162.475 1071.29 162.517 1071.33 162.581C1071.9 163.165 1072.36 163.833 1072.72 164.561C1072.74 164.582 1072.74 164.604 1072.77 164.646C1072.79 164.667 1072.79 164.689 1072.81 164.731C1072.83 164.773 1072.85 164.837 1072.89 164.88C1072.91 164.923 1072.93 164.986 1072.96 165.029C1072.98 165.072 1073 165.135 1073.02 165.178C1073.1 165.37 1073.17 165.561 1073.23 165.753C1073.33 166.051 1073.4 166.307 1073.46 166.52C1073.47 166.562 1073.5 166.599 1073.53 166.626C1073.57 166.653 1073.61 166.668 1073.65 166.669C1073.75 166.669 1073.82 166.584 1073.82 166.477C1073.8 166.221 1073.8 165.945 1073.78 165.625H1073.78Z" fill="#0F1829" />
    <path d="M1152.37 167.646L1152.96 175.184L1142.5 177.061L1141.6 169.522L1143.09 169.314C1143.34 169.418 1143.51 169.452 1143.79 169.522C1144.24 169.626 1144.76 169.765 1145.53 169.348C1145.7 169.244 1146.08 168.931 1146.22 168.723L1152.37 167.646ZM1136.21 176.609C1136.04 176.332 1135.73 176.019 1135.24 175.637C1134.54 175.081 1134.79 174.108 1135.2 173.518C1135.73 172.51 1138.47 171.19 1138.33 169.557C1138.26 168.966 1138.19 168.202 1137.64 167.646C1137.6 167.855 1137.64 168.063 1137.64 168.063C1137.64 168.063 1137.39 167.786 1137.29 167.368C1137.18 167.229 1137.08 167.16 1136.98 166.951C1136.91 167.194 1136.91 167.438 1136.91 167.438C1136.91 167.438 1136.73 166.986 1136.7 166.639C1136.59 166.812 1136.56 167.125 1136.56 167.125C1136.56 167.125 1136.32 166.43 1136.39 166.049C1136.28 165.736 1135.93 165.076 1136.04 163.617C1136.63 164.034 1137.95 163.93 1138.47 163.165C1138.64 162.922 1138.75 162.228 1138.4 160.872C1138.16 160.004 1137.57 158.718 1137.32 158.232L1137.29 158.267C1137.43 158.649 1137.67 159.483 1137.78 159.9C1138.05 161.116 1138.16 161.533 1138.02 162.089C1137.91 162.575 1137.64 162.887 1136.91 163.235C1136.21 163.582 1135.24 162.71 1135.2 162.679C1134.51 162.123 1133.99 161.217 1133.92 160.803C1133.85 160.317 1134.2 160.039 1134.37 159.657C1134.13 159.726 1133.85 159.865 1133.85 159.865C1133.85 159.865 1134.16 159.518 1134.58 159.24C1134.73 159.148 1134.88 159.043 1135.03 158.927H1134.58C1134.58 158.927 1135 158.684 1135.45 158.545H1134.82L1136.49 157.815C1137.02 157.607 1137.5 157.676 1137.78 158.058C1138.16 158.583 1138.54 158.857 1139.34 159.066C1139.83 158.857 1140 158.718 1140.62 158.541C1141.18 157.915 1141.63 157.846 1141.63 157.846C1141.63 157.846 1141.32 158.123 1141.28 158.436C1141.6 158.193 1141.95 157.985 1141.95 157.985C1141.95 157.985 1141.81 158.158 1141.7 158.402L1141.74 158.437C1142.12 158.228 1142.54 158.054 1142.54 158.054C1142.54 158.054 1142.4 158.193 1142.26 158.401C1142.54 158.401 1143.09 158.401 1143.3 158.436C1144.59 158.471 1144.86 157.081 1145.35 156.873C1145.98 156.665 1146.25 156.526 1147.3 157.568C1148.2 158.471 1148.89 160.035 1148.55 160.382C1148.27 160.66 1147.68 160.278 1147.02 159.479C1146.67 159.062 1146.43 158.541 1146.29 157.916C1146.22 157.391 1145.84 157.082 1145.84 157.082C1145.84 157.082 1146.08 157.607 1146.08 158.055C1146.08 158.298 1146.11 159.201 1146.5 159.722C1146.46 159.792 1146.43 160.105 1146.39 160.139C1145.94 159.584 1144.93 159.202 1144.8 159.063C1145.35 159.515 1146.6 160.526 1147.09 161.495C1147.54 162.432 1147.26 163.267 1147.51 163.475C1147.57 163.545 1148.48 164.657 1148.65 165.247C1148.96 166.254 1148.69 167.297 1148.27 167.922L1147.16 168.095C1147.01 168.07 1146.87 168.023 1146.74 167.956C1146.81 167.817 1146.98 167.47 1146.98 167.4L1146.91 167.296C1146.57 167.783 1145.98 168.269 1145.49 168.547C1144.86 168.894 1144.13 168.86 1143.65 168.686C1142.3 168.269 1141.01 167.366 1140.73 167.123C1140.73 167.123 1140.73 167.296 1140.77 167.366C1141.33 167.958 1141.96 168.482 1142.64 168.929L1141.05 169.102L1141.81 175.008C1141.46 175.043 1141.43 175.078 1141.05 175.147C1140.73 174.001 1140.11 173.271 1139.41 172.82C1138.82 172.437 1137.99 172.333 1137.19 172.507L1137.16 172.576C1137.71 172.507 1138.37 172.611 1139.03 173.028C1139.69 173.444 1140.21 174.522 1140.42 175.147C1140.66 175.981 1140.84 176.85 1140.18 177.787C1139.69 178.447 1138.3 178.83 1137.19 178.03C1137.5 178.517 1137.89 178.899 1138.44 178.968C1139.24 179.072 1140 178.933 1140.56 178.412C1141.01 177.96 1141.26 176.988 1141.19 175.945L1141.92 175.841L1142.16 177.679L1154 176.266L1152.96 166.816L1152.37 166.92L1151.19 155L1131.45 157.293L1133.88 176.956L1136.21 176.609Z" fill="#0F1829" />
    <path d="M1145.6 166.274C1146.13 166.657 1146.57 166.899 1147.03 166.865C1147.3 166.83 1147.58 166.378 1147.75 165.962C1147.89 165.684 1147.89 165.371 1147.69 165.267C1147.58 165.232 1147.16 165.232 1146.85 165.267C1146.26 165.336 1145.67 165.544 1145.53 165.649C1145.32 165.788 1145.43 166.136 1145.6 166.275V166.274ZM1145.74 162.209V162.244L1145.77 162.313C1145.91 162.591 1146.05 162.869 1146.33 163.008C1146.4 163.008 1146.47 162.973 1146.54 162.973C1146.78 162.973 1146.92 163.008 1147.03 163.043V162.834C1146.99 162.487 1147.09 161.861 1146.4 161.514C1146.12 161.375 1145.77 161.445 1145.64 161.583H1145.7C1145.88 161.653 1145.77 161.722 1145.74 161.792C1145.7 161.931 1145.67 161.966 1145.74 162.209" fill="#0F1829" />
    <path d="M1142.61 162.279C1142.79 162.14 1141.81 161.931 1141.05 162.417C1140.49 162.8 1140.49 163.599 1141.01 164.05C1141.07 164.076 1141.11 164.112 1141.15 164.155C1141.29 164.085 1141.5 164.016 1141.68 163.946C1142.03 163.842 1142.3 163.772 1142.55 163.738C1142.65 163.599 1142.79 163.39 1142.76 163.008C1142.72 162.483 1142.3 162.591 1142.62 162.279H1142.61ZM1148.28 170.717L1146.61 173.493L1144.67 172.902L1142.96 175.507L1143.03 176.341L1152.34 174.638L1151.79 168.836L1150.26 172.033L1148.28 170.717Z" fill="#0F1829" />
    <defs>
        <filter id="filter0_d_216_20458" x="490" y="125" width="28" height="28" filterUnits="userSpaceOnUse" color-interpolation-filters="sRGB">
            <feFlood flood-opacity="0" result="BackgroundImageFix" />
            <feColorMatrix in="SourceAlpha" type="matrix" values="0 0 0 0 0 0 0 0 0 0 0 0 0 0 0 0 0 0 127 0" result="hardAlpha" />
            <feOffset />
            <feGaussianBlur stdDeviation="4" />
            <feComposite in2="hardAlpha" operator="out" />
            <feColorMatrix type="matrix" values="0 0 0 0 0.32549 0 0 0 0 0.470588 0 0 0 0 0.843137 0 0 0 0.4 0" />
            <feBlend mode="normal" in2="BackgroundImageFix" result="effect1_dropShadow_216_20458" />
            <feBlend mode="normal" in="SourceGraphic" in2="effect1_dropShadow_216_20458" result="shape" />
        </filter>
        <filter id="filter1_d_216_20458" x="442" y="125" width="28" height="28" filterUnits="userSpaceOnUse" color-interpolation-filters="sRGB">
            <feFlood flood-opacity="0" result="BackgroundImageFix" />
            <feColorMatrix in="SourceAlpha" type="matrix" values="0 0 0 0 0 0 0 0 0 0 0 0 0 0 0 0 0 0 127 0" result="hardAlpha" />
            <feOffset />
            <feGaussianBlur stdDeviation="4" />
            <feComposite in2="hardAlpha" operator="out" />
            <feColorMatrix type="matrix" values="0 0 0 0 0.32549 0 0 0 0 0.470588 0 0 0 0 0.843137 0 0 0 0.4 0" />
            <feBlend mode="normal" in2="BackgroundImageFix" result="effect1_dropShadow_216_20458" />
            <feBlend mode="normal" in="SourceGraphic" in2="effect1_dropShadow_216_20458" result="shape" />
        </filter>
        <filter id="filter2_d_216_20458" x="538" y="125" width="28" height="28" filterUnits="userSpaceOnUse" color-interpolation-filters="sRGB">
            <feFlood flood-opacity="0" result="BackgroundImageFix" />
            <feColorMatrix in="SourceAlpha" type="matrix" values="0 0 0 0 0 0 0 0 0 0 0 0 0 0 0 0 0 0 127 0" result="hardAlpha" />
            <feOffset />
            <feGaussianBlur stdDeviation="4" />
            <feComposite in2="hardAlpha" operator="out" />
            <feColorMatrix type="matrix" values="0 0 0 0 0.32549 0 0 0 0 0.470588 0 0 0 0 0.843137 0 0 0 0.4 0" />
            <feBlend mode="normal" in2="BackgroundImageFix" result="effect1_dropShadow_216_20458" />
            <feBlend mode="normal" in="SourceGraphic" in2="effect1_dropShadow_216_20458" result="shape" />
        </filter>
        <filter id="filter3_d_216_20458" x="586" y="125" width="28" height="28" filterUnits="userSpaceOnUse" color-interpolation-filters="sRGB">
            <feFlood flood-opacity="0" result="BackgroundImageFix" />
            <feColorMatrix in="SourceAlpha" type="matrix" values="0 0 0 0 0 0 0 0 0 0 0 0 0 0 0 0 0 0 127 0" result="hardAlpha" />
            <feOffset />
            <feGaussianBlur stdDeviation="4" />
            <feComposite in2="hardAlpha" operator="out" />
            <feColorMatrix type="matrix" values="0 0 0 0 0.32549 0 0 0 0 0.470588 0 0 0 0 0.843137 0 0 0 0.4 0" />
            <feBlend mode="normal" in2="BackgroundImageFix" result="effect1_dropShadow_216_20458" />
            <feBlend mode="normal" in="SourceGraphic" in2="effect1_dropShadow_216_20458" result="shape" />
        </filter>
        <filter id="filter4_d_216_20458" x="634" y="125" width="28" height="28" filterUnits="userSpaceOnUse" color-interpolation-filters="sRGB">
            <feFlood flood-opacity="0" result="BackgroundImageFix" />
            <feColorMatrix in="SourceAlpha" type="matrix" values="0 0 0 0 0 0 0 0 0 0 0 0 0 0 0 0 0 0 127 0" result="hardAlpha" />
            <feOffset />
            <feGaussianBlur stdDeviation="4" />
            <feComposite in2="hardAlpha" operator="out" />
            <feColorMatrix type="matrix" values="0 0 0 0 0.32549 0 0 0 0 0.470588 0 0 0 0 0.843137 0 0 0 0.4 0" />
            <feBlend mode="normal" in2="BackgroundImageFix" result="effect1_dropShadow_216_20458" />
            <feBlend mode="normal" in="SourceGraphic" in2="effect1_dropShadow_216_20458" result="shape" />
        </filter>
        <filter id="filter5_d_216_20458" x="682" y="125" width="28" height="28" filterUnits="userSpaceOnUse" color-interpolation-filters="sRGB">
            <feFlood flood-opacity="0" result="BackgroundImageFix" />
            <feColorMatrix in="SourceAlpha" type="matrix" values="0 0 0 0 0 0 0 0 0 0 0 0 0 0 0 0 0 0 127 0" result="hardAlpha" />
            <feOffset />
            <feGaussianBlur stdDeviation="4" />
            <feComposite in2="hardAlpha" operator="out" />
            <feColorMatrix type="matrix" values="0 0 0 0 0.32549 0 0 0 0 0.470588 0 0 0 0 0.843137 0 0 0 0.4 0" />
            <feBlend mode="normal" in2="BackgroundImageFix" result="effect1_dropShadow_216_20458" />
            <feBlend mode="normal" in="SourceGraphic" in2="effect1_dropShadow_216_20458" result="shape" />
        </filter>
        <filter id="filter6_d_216_20458" x="730" y="125" width="28" height="28" filterUnits="userSpaceOnUse" color-interpolation-filters="sRGB">
            <feFlood flood-opacity="0" result="BackgroundImageFix" />
            <feColorMatrix in="SourceAlpha" type="matrix" values="0 0 0 0 0 0 0 0 0 0 0 0 0 0 0 0 0 0 127 0" result="hardAlpha" />
            <feOffset />
            <feGaussianBlur stdDeviation="4" />
            <feComposite in2="hardAlpha" operator="out" />
            <feColorMatrix type="matrix" values="0 0 0 0 0.32549 0 0 0 0 0.470588 0 0 0 0 0.843137 0 0 0 0.4 0" />
            <feBlend mode="normal" in2="BackgroundImageFix" result="effect1_dropShadow_216_20458" />
            <feBlend mode="normal" in="SourceGraphic" in2="effect1_dropShadow_216_20458" result="shape" />
        </filter>
        <linearGradient id="paint0_linear_216_20458" x1="695" y1="139" x2="816.905" y2="139" gradientUnits="userSpaceOnUse">
            <stop stop-color="white" stop-opacity="0" />
            <stop offset="0.276042" stop-color="white" />
            <stop offset="0.6875" stop-color="white" />
            <stop offset="1" stop-color="white" stop-opacity="0" />
        </linearGradient>
        <linearGradient id="paint1_linear_216_20458" x1="282" y1="139" x2="536" y2="139" gradientUnits="userSpaceOnUse">
            <stop stop-color="white" stop-opacity="0" />
            <stop offset="0.213542" stop-color="white" />
            <stop offset="0.734375" stop-color="white" />
            <stop offset="1" stop-color="white" stop-opacity="0" />
        </linearGradient>
        <linearGradient id="paint2_linear_216_20458" x1="976" y1="139" x2="1230" y2="139" gradientUnits="userSpaceOnUse">
            <stop stop-color="white" stop-opacity="0" />
            <stop offset="0.213542" stop-color="white" />
            <stop offset="0.734375" stop-color="white" />
            <stop offset="1" stop-color="white" stop-opacity="0" />
        </linearGradient>
    </defs>
</svg>
    